<?xml version="1.0" encoding="iso-8859-1"?>
<!-- Generator: Adobe Illustrator 18.0.0, SVG Export Plug-In . SVG Version: 6.00 Build 0)  -->
<!DOCTYPE svg PUBLIC "-//W3C//DTD SVG 1.1//EN" "http://www.w3.org/Graphics/SVG/1.1/DTD/svg11.dtd">
<svg version="1.1" id="Capa_1" xmlns="http://www.w3.org/2000/svg" xmlns:xlink="http://www.w3.org/1999/xlink" x="0px" y="0px"
	 viewBox="0 0 59 59" style="enable-background:new 0 0 59 59;" xml:space="preserve">
<g>
	<g>
		<path style="fill:#E8D5B2;" d="M30.22,5L1.241,34.218c-0.987,0.987-0.987,2.588,0,3.576l20.466,20.466
			c0.987,0.987,2.588,0.987,3.576,0L53.5,29.28L53.5,5H30.22z M43.5,19c-2.209,0-4-1.791-4-4c0-2.209,1.791-4,4-4s4,1.791,4,4
			C47.5,17.209,45.709,19,43.5,19z"/>
		<path style="fill:#CBB292;" d="M43.5,7c-4.418,0-8,3.582-8,8s3.582,8,8,8s8-3.582,8-8S47.918,7,43.5,7z M43.5,19
			c-2.209,0-4-1.791-4-4c0-2.209,1.791-4,4-4s4,1.791,4,4C47.5,17.209,45.709,19,43.5,19z"/>
	</g>
	<path style="fill:#D4C3A5;" d="M10.798,24.582l-9.557,9.636c-0.987,0.987-0.987,2.588,0,3.576l20.466,20.466
		c0.987,0.987,2.588,0.987,3.576,0l9.469-9.724L10.798,24.582z"/>
	<path style="fill:#D75A4A;" d="M43.5,16c-0.256,0-0.512-0.098-0.707-0.293c-0.391-0.391-0.391-1.023,0-1.414l14-14
		c0.391-0.391,1.023-0.391,1.414,0s0.391,1.023,0,1.414l-14,14C44.012,15.902,43.756,16,43.5,16z"/>
</g>
<g>
</g>
<g>
</g>
<g>
</g>
<g>
</g>
<g>
</g>
<g>
</g>
<g>
</g>
<g>
</g>
<g>
</g>
<g>
</g>
<g>
</g>
<g>
</g>
<g>
</g>
<g>
</g>
<g>
</g>
</svg>
