<?xml version="1.0" encoding="UTF-8" standalone="no"?>
<!-- Generated by IcoMoon.io -->

<svg
   xmlns:dc="http://purl.org/dc/elements/1.1/"
   xmlns:cc="http://creativecommons.org/ns#"
   xmlns:rdf="http://www.w3.org/1999/02/22-rdf-syntax-ns#"
   xmlns:svg="http://www.w3.org/2000/svg"
   xmlns="http://www.w3.org/2000/svg"
   xmlns:sodipodi="http://sodipodi.sourceforge.net/DTD/sodipodi-0.dtd"
   xmlns:inkscape="http://www.inkscape.org/namespaces/inkscape"
   version="1.1"
   width="53.73349"
   height="64"
   viewBox="0 0 53.73349 64"
   id="svg8"
   sodipodi:docname="android.svg"
   inkscape:version="0.92.5 (2060ec1f9f, 2020-04-08)">
  <metadata
     id="metadata14">
    <rdf:RDF>
      <cc:Work
         rdf:about="">
        <dc:format>image/svg+xml</dc:format>
        <dc:type
           rdf:resource="http://purl.org/dc/dcmitype/StillImage" />
        <dc:title></dc:title>
      </cc:Work>
    </rdf:RDF>
  </metadata>
  <defs
     id="defs12" />
  <sodipodi:namedview
     pagecolor="#ffffff"
     bordercolor="#666666"
     borderopacity="1"
     objecttolerance="10"
     gridtolerance="10"
     guidetolerance="10"
     inkscape:pageopacity="0"
     inkscape:pageshadow="2"
     inkscape:window-width="1600"
     inkscape:window-height="836"
     id="namedview10"
     showgrid="false"
     inkscape:zoom="10.429825"
     inkscape:cx="16.201678"
     inkscape:cy="45.649473"
     inkscape:window-x="0"
     inkscape:window-y="27"
     inkscape:window-maximized="1"
     inkscape:current-layer="svg8"
     fit-margin-top="0"
     fit-margin-left="0"
     fit-margin-right="0"
     fit-margin-bottom="0" />
  <g
     id="g2"
     transform="translate(0,-448)" />
  <path
     id="path848"
     style="fill:#3ddb85;stroke-width:0.1343663;opacity:1"
     d="m 44.53826,48.51281 c 0,1.43785 -1.159845,2.60469 -2.600386,2.60469 H 11.819129 c -1.437854,0 -2.601869,-1.16671 -2.601869,-2.60469 v -26.9086 c 7.894961,-0.0289 26.312953,-0.0289 35.321,0 z m 9.19523,-7.2965 c 0,2.09276 -1.69503,3.79195 -3.79195,3.79195 v 0 c -2.09692,0 -3.79612,-1.69785 -3.79612,-3.79195 V 24.6214 c 0,-2.09692 1.69785,-3.79061 3.79612,-3.79061 v 0 c 2.09557,0 3.79195,1.69383 3.79195,3.79061 z m -46.148109,0 c 0,2.09276 -1.70054,3.79195 -3.790608,3.79195 v 0 C 1.696509,45.00826 0,43.31041 0,41.21631 V 24.6214 c 0,-2.09692 1.695031,-3.79061 3.794773,-3.79061 v 0 c 2.090068,0 3.790608,1.69383 3.790608,3.79061 z M 24.099134,60.20805 C 24.099134,62.3008 22.401282,64 20.301674,64 v 0 c -2.092755,0 -3.787786,-1.69785 -3.787786,-3.79195 V 43.61314 c 0,-2.09141 1.695031,-3.79478 3.787786,-3.79478 v 0 c 2.098264,0 3.79746,1.70337 3.79746,3.79478 z m 13.155133,0 C 37.254267,62.3008 35.556415,64 33.45815,64 v 0 c -2.092755,0 -3.791951,-1.69785 -3.791951,-3.79195 V 43.61314 c 0,-2.09141 1.697853,-3.79478 3.791951,-3.79478 v 0 c 2.096921,0 3.796117,1.70337 3.796117,3.79478 z M 34.957031,10.638672 c 0.822725,0 1.482422,0.661165 1.482422,1.478516 0,0.82004 -0.659563,1.482421 -1.482422,1.482421 -0.820038,0 -1.484375,-0.662382 -1.484375,-1.482421 0,-0.81721 0.664337,-1.478516 1.484375,-1.478516 z m -16.126953,0 c 0.814528,0 1.480469,0.661164 1.480469,1.478516 0,0.820039 -0.665941,1.482421 -1.480469,1.482421 -0.822859,0 -1.486328,-0.662383 -1.486328,-1.482421 0,-0.817211 0.663469,-1.478516 1.486328,-1.478516 z M 37.849609,0.02734375 c -0.230988,-0.02934281 -0.469898,0.082225 -0.59375,0.296875 L 34.269531,5.4941406 C 32.013792,4.4635565 29.51798,3.8730469 26.878906,3.8730469 c -2.774106,0 -5.395308,0.6459099 -7.740234,1.7792969 l -2.6875,-5.24023442 c -0.151296,-0.29453 -0.511635,-0.41314876 -0.804688,-0.26171876 -0.293191,0.15264001 -0.414968,0.51090063 -0.263672,0.80664063 L 18.080078,6.2148438 C 13.184146,9.0017181 9.7060028,14.02408 9.0429688,19.916016 H 44.712891 C 44.036713,13.890565 40.418048,8.7723153 35.345703,6.0273438 L 38.294922,0.921875 c 0.165002,-0.28473 0.06637,-0.65274625 -0.222656,-0.81640625 -0.07084,-0.04229 -0.145661,-0.06834406 -0.222657,-0.078125 z" />
</svg>
