<?xml version="1.0" encoding="UTF-8" standalone="no"?>
<!-- Generated by IcoMoon.io -->

<svg
   version="1.1"
   width="107.46698"
   height="128"
   viewBox="0 0 107.46698 128"
   id="svg8"
   sodipodi:docname="android.svg"
   inkscape:version="1.2.1 (0f2f062aeb, 2022-09-21, custom)"
   xmlns:inkscape="http://www.inkscape.org/namespaces/inkscape"
   xmlns:sodipodi="http://sodipodi.sourceforge.net/DTD/sodipodi-0.dtd"
   xmlns="http://www.w3.org/2000/svg"
   xmlns:svg="http://www.w3.org/2000/svg"
   xmlns:rdf="http://www.w3.org/1999/02/22-rdf-syntax-ns#"
   xmlns:cc="http://creativecommons.org/ns#"
   xmlns:dc="http://purl.org/dc/elements/1.1/">
  <metadata
     id="metadata14">
    <rdf:RDF>
      <cc:Work
         rdf:about="">
        <dc:format>image/svg+xml</dc:format>
        <dc:type
           rdf:resource="http://purl.org/dc/dcmitype/StillImage" />
      </cc:Work>
    </rdf:RDF>
  </metadata>
  <defs
     id="defs12" />
  <sodipodi:namedview
     pagecolor="#ffffff"
     bordercolor="#666666"
     borderopacity="1"
     objecttolerance="10"
     gridtolerance="10"
     guidetolerance="10"
     inkscape:pageopacity="0"
     inkscape:pageshadow="2"
     inkscape:window-width="1600"
     inkscape:window-height="836"
     id="namedview10"
     showgrid="false"
     inkscape:zoom="3.6875"
     inkscape:cx="12.745763"
     inkscape:cy="45.966102"
     inkscape:window-x="0"
     inkscape:window-y="27"
     inkscape:window-maximized="1"
     inkscape:current-layer="svg8"
     fit-margin-top="0"
     fit-margin-left="0"
     fit-margin-right="0"
     fit-margin-bottom="0"
     inkscape:showpageshadow="2"
     inkscape:pagecheckerboard="0"
     inkscape:deskcolor="#d1d1d1" />
  <g
     id="g2"
     transform="translate(0,-448)" />
  <path
     id="path848"
     style="opacity:1;fill:#3ddb85;stroke-width:0.268827"
     d="m 89.10815,97.037339 c 0,2.876721 -2.320514,5.211231 -5.202619,5.211231 H 23.646652 c -2.87673,0 -5.205586,-2.33425 -5.205586,-5.211231 v -53.83631 c 15.795529,-0.05782 52.644593,-0.05782 70.667084,0 z m 18.39699,-14.598182 c 0,4.187006 -3.39126,7.586593 -7.586593,7.586593 v 0 c -4.195329,0 -7.594936,-3.396906 -7.594936,-7.586593 V 49.237552 c 0,-4.195329 3.396906,-7.583912 7.594936,-7.583912 v 0 c 4.192633,0 7.586593,3.388863 7.586593,7.583912 z m -92.328991,0 c 0,4.187006 -3.402288,7.586593 -7.5839081,7.586593 v 0 C 3.3942228,90.02575 0,86.628844 0,82.439157 V 49.237552 C 0,45.042223 3.3912658,41.65364 7.5922409,41.65364 v 0 c 4.1816201,0 7.5839081,3.388863 7.5839081,7.583912 z m 33.039234,37.996963 c 0,4.18699 -3.39691,7.5866 -7.597617,7.5866 v 0 c -4.186997,0 -7.578262,-3.39691 -7.578262,-7.5866 V 87.234519 c 0,-4.184305 3.391265,-7.592255 7.578262,-7.592255 v 0 c 4.198018,0 7.597617,3.40795 7.597617,7.592255 z m 26.319608,0 c 0,4.18699 -3.39691,7.5866 -7.59493,7.5866 v 0 c -4.186996,0 -7.586595,-3.39691 -7.586595,-7.5866 V 87.234519 c 0,-4.184305 3.396912,-7.592255 7.586595,-7.592255 v 0 c 4.195331,0 7.59493,3.40795 7.59493,7.592255 z M 69.938888,21.262166 c 1.646034,0 2.965896,1.322799 2.965896,2.958082 0,1.640662 -1.319594,2.965894 -2.965896,2.965894 -1.640659,0 -2.969805,-1.325234 -2.969805,-2.965894 0,-1.635001 1.329146,-2.958082 2.969805,-2.958082 z m -32.265359,0 c 1.629634,0 2.961989,1.322797 2.961989,2.958082 0,1.64066 -1.332355,2.965894 -2.961989,2.965894 -1.646303,0 -2.973712,-1.325236 -2.973712,-2.965894 0,-1.635003 1.327409,-2.958082 2.973712,-2.958082 z M 75.726098,0.03197335 c -0.46214,-0.05870646 -0.94013,0.16450839 -1.187922,0.59396083 L 68.563399,10.969449 C 64.050319,8.9075493 59.056923,7.7261108 53.776901,7.7261108 c -5.550182,0 -10.794448,1.2922785 -15.485965,3.5598572 L 32.914027,0.80177786 C 32.611328,0.21250869 31.890394,-0.02481307 31.30408,0.27815447 30.717489,0.58354289 30.473849,1.3003186 30.776548,1.8920086 L 36.172996,12.411368 C 26.377655,17.987095 19.418899,28.035386 18.09236,39.823442 H 89.457536 C 88.1047,27.768261 80.8648,17.528127 70.716508,12.036234 L 76.61704,1.8216711 C 76.947161,1.2520089 76.749827,0.51571506 76.17157,0.18827883 76.02984,0.1036688 75.880144,0.05154217 75.726098,0.03197335 Z" />
</svg>
