<?xml version="1.0" encoding="UTF-8" standalone="no"?>
<!-- Generator: Adobe Illustrator 18.1.1, SVG Export Plug-In . SVG Version: 6.00 Build 0)  -->

<svg
   version="1.1"
   id="Capa_1"
   x="0px"
   y="0px"
   viewBox="0 0 104.22144 128"
   xml:space="preserve"
   sodipodi:docname="apple.svg"
   inkscape:version="1.2.1 (0f2f062aeb, 2022-09-21, custom)"
   width="104.22144"
   height="128"
   xmlns:inkscape="http://www.inkscape.org/namespaces/inkscape"
   xmlns:sodipodi="http://sodipodi.sourceforge.net/DTD/sodipodi-0.dtd"
   xmlns="http://www.w3.org/2000/svg"
   xmlns:svg="http://www.w3.org/2000/svg"
   xmlns:rdf="http://www.w3.org/1999/02/22-rdf-syntax-ns#"
   xmlns:cc="http://creativecommons.org/ns#"
   xmlns:dc="http://purl.org/dc/elements/1.1/"><metadata
   id="metadata43"><rdf:RDF><cc:Work
       rdf:about=""><dc:format>image/svg+xml</dc:format><dc:type
         rdf:resource="http://purl.org/dc/dcmitype/StillImage" /></cc:Work></rdf:RDF></metadata><defs
   id="defs41" /><sodipodi:namedview
   pagecolor="#ffffff"
   bordercolor="#666666"
   borderopacity="1"
   objecttolerance="10"
   gridtolerance="10"
   guidetolerance="10"
   inkscape:pageopacity="0"
   inkscape:pageshadow="2"
   inkscape:window-width="1600"
   inkscape:window-height="836"
   id="namedview39"
   showgrid="false"
   inkscape:zoom="3.0226996"
   inkscape:cx="-54.256136"
   inkscape:cy="49.128269"
   inkscape:window-x="0"
   inkscape:window-y="27"
   inkscape:window-maximized="1"
   inkscape:current-layer="Capa_1"
   fit-margin-top="0"
   fit-margin-left="0"
   fit-margin-right="0"
   fit-margin-bottom="0"
   inkscape:showpageshadow="2"
   inkscape:pagecheckerboard="0"
   inkscape:deskcolor="#d1d1d1"><inkscape:grid
     type="xygrid"
     id="grid850"
     originx="-5.4332074e-08"
     originy="-0.00015560413" /></sodipodi:namedview>

		<path
   style="fill:#030104;stroke-width:9.27412"
   d="M 87.045764,68.007144 C 86.878824,51.786704 100.27066,44.024262 100.86421,43.63475 93.342894,32.644914 81.63895,31.133232 77.45632,30.966298 c -9.951134,-1.020154 -19.438562,5.861244 -24.502232,5.861244 -5.045124,0 -12.853936,-5.722134 -21.117178,-5.573748 -10.869274,0.16694 -20.876051,6.324952 -26.4776216,16.044234 -11.286608,19.586948 -2.8935264,48.596406 8.1055836,64.501522 5.378991,7.77172 11.796684,16.49867 20.208314,16.19262 8.105584,-0.32459 11.166044,-5.24915 20.968792,-5.24915 9.802748,0 12.557162,5.24915 21.126452,5.09149 8.72695,-0.16694 14.245054,-7.92937 19.577674,-15.71964 6.176566,-9.02372 8.717676,-17.769216 8.875336,-18.2051 C 104.01741,93.79849 87.221972,87.371514 87.045764,68.007144 Z M 70.927338,20.440168 C 75.388192,15.033354 78.411556,7.502766 77.586158,-4.3965208e-8 71.140644,0.25967596 63.359654,4.27537 58.731866,9.691458 54.586334,14.48618 50.9787,22.137332 51.943208,29.491712 c 7.178172,0.56572 14.523276,-3.654006 18.98413,-9.051544 z"
   id="path2"
   inkscape:connector-curvature="0" />
</svg>
