<?xml version="1.0" encoding="UTF-8" standalone="no"?>
<!-- Generator: Adobe Illustrator 18.1.1, SVG Export Plug-In . SVG Version: 6.00 Build 0)  -->

<svg
   version="1.1"
   id="Capa_1"
   x="0px"
   y="0px"
   viewBox="0 0 128 128"
   xml:space="preserve"
   sodipodi:docname="apple-dark.svg"
   inkscape:version="1.2.1 (0f2f062aeb, 2022-09-21, custom)"
   width="128"
   height="128"
   inkscape:export-filename="apple-darkmode.svg"
   inkscape:export-xdpi="96"
   inkscape:export-ydpi="96"
   xmlns:inkscape="http://www.inkscape.org/namespaces/inkscape"
   xmlns:sodipodi="http://sodipodi.sourceforge.net/DTD/sodipodi-0.dtd"
   xmlns="http://www.w3.org/2000/svg"
   xmlns:svg="http://www.w3.org/2000/svg"
   xmlns:rdf="http://www.w3.org/1999/02/22-rdf-syntax-ns#"
   xmlns:cc="http://creativecommons.org/ns#"
   xmlns:dc="http://purl.org/dc/elements/1.1/"><metadata
   id="metadata43"><rdf:RDF><cc:Work
       rdf:about=""><dc:format>image/svg+xml</dc:format><dc:type
         rdf:resource="http://purl.org/dc/dcmitype/StillImage" /></cc:Work></rdf:RDF></metadata><defs
   id="defs41"><inkscape:path-effect
     effect="fillet_chamfer"
     id="path-effect330"
     is_visible="true"
     lpeversion="1"
     nodesatellites_param="F,0,0,1,0,40,0,1 @ F,0,0,1,0,40,0,1 @ F,0,0,1,0,40,0,1 @ F,0,0,1,0,40,0,1"
     unit="px"
     method="auto"
     mode="F"
     radius="40"
     chamfer_steps="1"
     flexible="false"
     use_knot_distance="true"
     apply_no_radius="true"
     apply_with_radius="true"
     only_selected="false"
     hide_knots="false" /></defs><sodipodi:namedview
   pagecolor="#ffffff"
   bordercolor="#666666"
   borderopacity="1"
   objecttolerance="10"
   gridtolerance="10"
   guidetolerance="10"
   inkscape:pageopacity="0"
   inkscape:pageshadow="2"
   inkscape:window-width="1600"
   inkscape:window-height="836"
   id="namedview39"
   showgrid="false"
   inkscape:zoom="3.0226996"
   inkscape:cx="-79.233808"
   inkscape:cy="48.797439"
   inkscape:window-x="0"
   inkscape:window-y="27"
   inkscape:window-maximized="1"
   inkscape:current-layer="Capa_1"
   fit-margin-top="0"
   fit-margin-left="0"
   fit-margin-right="0"
   fit-margin-bottom="0"
   inkscape:showpageshadow="0"
   inkscape:pagecheckerboard="0"
   inkscape:deskcolor="#d1d1d1"><inkscape:grid
     type="xygrid"
     id="grid850"
     originx="-5.4332076e-08"
     originy="-0.00015560413" /></sodipodi:namedview>

		<path
   style="fill:#eceff1"
   id="rect168"
   width="128"
   height="128"
   x="2.4342668e-15"
   y="5.2623713e-15"
   inkscape:label="rect168"
   inkscape:path-effect="#path-effect330"
   d="m 40,0 h 48 a 40,40 45 0 1 40,40 V 88 A 40,40 135 0 1 88,128 H 40 A 40,40 45 0 1 0,88 V 40 A 40,40 135 0 1 40,0 Z"
   sodipodi:type="rect" /><path
   style="fill:#030104;stroke-width:9.12806"
   d="M 99.045764,67.88192 C 98.878824,52.16837 112.27066,44.648504 112.86421,44.271164 105.3429,33.62476 93.63895,32.160318 89.45632,31.998602 c -9.951134,-0.988276 -19.438562,5.67808 -24.502232,5.67808 -5.045124,0 -12.853936,-5.543318 -21.117178,-5.39957 -10.869274,0.16172 -20.876052,6.127298 -26.477622,15.542852 -11.2866076,18.974856 -2.893526,47.077768 8.105584,62.485856 5.37899,7.52885 11.796684,15.98308 20.208314,15.6866 8.105584,-0.31445 11.166044,-5.08512 20.968792,-5.08512 9.802748,0 12.557162,5.08512 21.126452,4.93239 8.72695,-0.16172 14.24506,-7.68159 19.57767,-15.22841 6.17657,-8.74173 8.71768,-17.213928 8.87534,-17.63619 -0.20403,-0.1078 -16.999468,-6.333936 -17.175676,-25.09317 z M 82.927338,21.801412 C 87.388192,16.563562 90.411556,9.2683046 89.586158,2 83.140644,2.2515612 75.359654,6.1417646 70.731866,11.3886 66.586334,16.033487 62.9787,23.44554 63.943208,30.570096 c 7.178172,0.548042 14.523276,-3.539818 18.98413,-8.768684 z"
   id="path2"
   inkscape:connector-curvature="0" />
</svg>
