<?xml version="1.0" encoding="UTF-8" standalone="no"?>
<!-- Generator: Adobe Illustrator 18.1.1, SVG Export Plug-In . SVG Version: 6.00 Build 0)  -->

<svg
   xmlns:dc="http://purl.org/dc/elements/1.1/"
   xmlns:cc="http://creativecommons.org/ns#"
   xmlns:rdf="http://www.w3.org/1999/02/22-rdf-syntax-ns#"
   xmlns:svg="http://www.w3.org/2000/svg"
   xmlns="http://www.w3.org/2000/svg"
   xmlns:sodipodi="http://sodipodi.sourceforge.net/DTD/sodipodi-0.dtd"
   xmlns:inkscape="http://www.inkscape.org/namespaces/inkscape"
   version="1.1"
   id="Capa_1"
   x="0px"
   y="0px"
   viewBox="0 0 52.110722 63.999999"
   xml:space="preserve"
   sodipodi:docname="mac-os-logo.svg"
   inkscape:version="0.92.5 (2060ec1f9f, 2020-04-08)"
   width="52.110722"
   height="64"><metadata
   id="metadata43"><rdf:RDF><cc:Work
       rdf:about=""><dc:format>image/svg+xml</dc:format><dc:type
         rdf:resource="http://purl.org/dc/dcmitype/StillImage" /><dc:title /></cc:Work></rdf:RDF></metadata><defs
   id="defs41" /><sodipodi:namedview
   pagecolor="#ffffff"
   bordercolor="#666666"
   borderopacity="1"
   objecttolerance="10"
   gridtolerance="10"
   guidetolerance="10"
   inkscape:pageopacity="0"
   inkscape:pageshadow="2"
   inkscape:window-width="1600"
   inkscape:window-height="836"
   id="namedview39"
   showgrid="false"
   inkscape:zoom="3.0226996"
   inkscape:cx="-12.763402"
   inkscape:cy="48.701323"
   inkscape:window-x="0"
   inkscape:window-y="27"
   inkscape:window-maximized="1"
   inkscape:current-layer="Capa_1"
   fit-margin-top="0"
   fit-margin-left="0"
   fit-margin-right="0"
   fit-margin-bottom="0"><inkscape:grid
     type="xygrid"
     id="grid850"
     originx="-5.4332076e-08"
     originy="-0.00015560413" /></sodipodi:namedview>

		<path
   style="fill:#030104;stroke-width:4.6370616"
   d="m 43.522882,34.003572 c -0.08347,-8.11022 6.61245,-11.991441 6.909222,-12.186197 -3.760657,-5.494918 -9.612629,-6.250759 -11.703944,-6.334226 -4.975567,-0.510077 -9.719281,2.930622 -12.251116,2.930622 -2.522562,0 -6.426968,-2.861067 -10.558589,-2.786874 -5.434637,0.08347 -10.4380256,3.162476 -13.2388108,8.022117 -5.643304,9.793474 -1.4467632,24.298203 4.0527918,32.250763 2.6894955,3.885858 5.898342,8.249333 10.104157,8.09631 4.052792,-0.162297 5.583022,-2.624577 10.484396,-2.624577 4.901374,0 6.278581,2.624577 10.563226,2.545747 4.363475,-0.08347 7.122527,-3.964688 9.788837,-7.85982 3.088283,-4.511861 4.358838,-8.88461 4.437668,-9.102552 -0.102015,-0.05564 -8.499734,-3.269128 -8.587838,-12.951313 z M 35.463669,10.220084 C 37.694096,7.516677 39.205778,3.751383 38.793079,-4.3965208e-8 35.570322,0.12983796 31.679827,2.137685 29.365933,4.845729 c -2.072766,2.397361 -3.876583,6.222937 -3.394329,9.900127 3.589086,0.28286 7.261638,-1.827003 9.492065,-4.525772 z"
   id="path2"
   inkscape:connector-curvature="0" />
</svg>