<?xml version="1.0" encoding="UTF-8" standalone="no"?>
<svg
   viewBox="0 0 91.34092 128"
   version="1.1"
   id="svg4"
   sodipodi:docname="html5.svg"
   width="91.340919"
   height="128"
   inkscape:version="1.2.1 (0f2f062aeb, 2022-09-21, custom)"
   xmlns:inkscape="http://www.inkscape.org/namespaces/inkscape"
   xmlns:sodipodi="http://sodipodi.sourceforge.net/DTD/sodipodi-0.dtd"
   xmlns="http://www.w3.org/2000/svg"
   xmlns:svg="http://www.w3.org/2000/svg"
   xmlns:rdf="http://www.w3.org/1999/02/22-rdf-syntax-ns#"
   xmlns:cc="http://creativecommons.org/ns#"
   xmlns:dc="http://purl.org/dc/elements/1.1/">
  <metadata
     id="metadata10">
    <rdf:RDF>
      <cc:Work
         rdf:about="">
        <dc:format>image/svg+xml</dc:format>
        <dc:type
           rdf:resource="http://purl.org/dc/dcmitype/StillImage" />
      </cc:Work>
    </rdf:RDF>
  </metadata>
  <defs
     id="defs8" />
  <sodipodi:namedview
     pagecolor="#ffffff"
     bordercolor="#666666"
     borderopacity="1"
     objecttolerance="10"
     gridtolerance="10"
     guidetolerance="10"
     inkscape:pageopacity="0"
     inkscape:pageshadow="2"
     inkscape:window-width="1600"
     inkscape:window-height="836"
     id="namedview6"
     showgrid="false"
     fit-margin-top="0"
     fit-margin-left="0"
     fit-margin-right="0"
     fit-margin-bottom="0"
     inkscape:zoom="5.2149125"
     inkscape:cx="34.324641"
     inkscape:cy="46.117744"
     inkscape:window-x="0"
     inkscape:window-y="27"
     inkscape:window-maximized="1"
     inkscape:current-layer="svg4"
     inkscape:showpageshadow="2"
     inkscape:pagecheckerboard="0"
     inkscape:deskcolor="#d1d1d1" />
  <path
     id="path18"
     style="fill:#f5333f;fill-opacity:1;stroke-width:0.305472"
     d="m 74.375876,0 h 7.05153 v 14.119559 h 9.913512 v 6.971495 H 74.375876 Z M 47.124968,0 h 7.35059 L 58.997164,7.4107648 63.514186,0 h 7.353336 V 21.091054 H 63.847154 V 10.637166 l -4.84999,7.499056 h -0.12128 L 54.022536,10.637166 V 21.091054 H 47.124962 Z M 0.95919204,0 H 8.0085852 V 6.9647732 H 14.457112 V 0 H 21.50681 V 21.091054 H 14.457418 V 14.028528 H 8.0088902 v 7.062526 H 0.9594985 V 0 Z M 30.776988,6.9941038 H 24.571006 V 0 H 44.035728 V 6.9941038 H 37.826992 V 21.091054 H 30.777296 V 6.9941038 Z M 0,25.484618 8.229262,117.74846 45.130794,128 82.152462,117.72844 90.381724,25.484618 Z m 75.10453,86.377222 -29.753488,8.24928 v 0.04 l -0.08008,-0.02 -0.08008,0.02 v -0.04 L 15.437375,111.86184 8.4094648,33.033114 H 82.13244 Z M 59.086502,78.56436 57.785038,93.240878 45.17084,96.64471 h -0.02002 l -12.594176,-3.403832 -0.8009,-9.030162 H 20.36292 l 1.58178,17.780014 23.186096,6.42723 h 0.04004 l 23.166078,-6.42723 3.103492,-34.739102 H 30.193984 L 29.152812,55.65858 H 72.461556 L 73.482704,44.345848 H 16.81893 l 3.043425,34.218512 z"
     inkscape:connector-curvature="0" />
</svg>
