<?xml version="1.0" encoding="UTF-8" standalone="no"?>
<svg
   xmlns:dc="http://purl.org/dc/elements/1.1/"
   xmlns:cc="http://creativecommons.org/ns#"
   xmlns:rdf="http://www.w3.org/1999/02/22-rdf-syntax-ns#"
   xmlns:svg="http://www.w3.org/2000/svg"
   xmlns="http://www.w3.org/2000/svg"
   xmlns:sodipodi="http://sodipodi.sourceforge.net/DTD/sodipodi-0.dtd"
   xmlns:inkscape="http://www.inkscape.org/namespaces/inkscape"
   viewBox="0 0 45.67046 64"
   version="1.1"
   id="svg4"
   sodipodi:docname="html.svg"
   width="45.67046"
   height="64"
   inkscape:version="0.92.5 (2060ec1f9f, 2020-04-08)">
  <metadata
     id="metadata10">
    <rdf:RDF>
      <cc:Work
         rdf:about="">
        <dc:format>image/svg+xml</dc:format>
        <dc:type
           rdf:resource="http://purl.org/dc/dcmitype/StillImage" />
        <dc:title></dc:title>
      </cc:Work>
    </rdf:RDF>
  </metadata>
  <defs
     id="defs8" />
  <sodipodi:namedview
     pagecolor="#ffffff"
     bordercolor="#666666"
     borderopacity="1"
     objecttolerance="10"
     gridtolerance="10"
     guidetolerance="10"
     inkscape:pageopacity="0"
     inkscape:pageshadow="2"
     inkscape:window-width="1600"
     inkscape:window-height="836"
     id="namedview6"
     showgrid="false"
     fit-margin-top="0"
     fit-margin-left="0"
     fit-margin-right="0"
     fit-margin-bottom="0"
     inkscape:zoom="5.2149125"
     inkscape:cx="34.392545"
     inkscape:cy="45.939296"
     inkscape:window-x="0"
     inkscape:window-y="27"
     inkscape:window-maximized="1"
     inkscape:current-layer="svg4" />
  <path
     id="path18"
     style="fill:#f5333f;fill-opacity:1;stroke-width:0.15273634"
     d="m 37.187938,0 h 3.525765 v 7.0597797 h 4.956756 V 10.545527 H 37.187938 Z M 23.562484,0 h 3.675295 L 29.498582,3.7053824 31.757093,0 h 3.676668 V 10.545527 H 31.923577 V 5.3185828 L 29.498582,9.068111 h -0.06064 L 27.011268,5.3185828 V 10.545527 H 23.562481 Z M 0.47959602,0 H 4.0042926 V 3.4823866 H 7.228556 V 0 h 3.524849 V 10.545527 H 7.2287092 V 7.014264 H 4.0044451 v 3.531263 H 0.47974925 V 0 Z M 15.388494,3.4970519 H 12.285503 V 0 h 9.732361 V 3.4970519 H 18.913496 V 10.545527 H 15.388648 V 3.4970519 Z M 0,12.742309 4.114631,58.874231 22.565397,64 41.076231,58.86422 45.190862,12.742309 Z m 37.552265,43.188609 -14.876744,4.124643 v 0.02002 l -0.04004,-0.01001 -0.04004,0.01001 v -0.02002 L 7.7186874,55.930918 4.2047324,16.516557 H 41.06622 Z M 29.543251,39.28218 28.892519,46.620439 22.58542,48.322355 h -0.01001 l -6.297088,-1.701916 -0.40045,-4.515081 H 10.18146 l 0.79089,8.890005 11.593048,3.213617 h 0.02002 L 34.168457,50.995363 35.720203,33.625814 H 15.096992 L 14.576406,27.82929 h 21.654372 l 0.510574,-5.656366 H 8.4094649 L 9.9311775,39.28218 Z"
     inkscape:connector-curvature="0" />
</svg>
