<?xml version="1.0" encoding="UTF-8" standalone="no"?>
<!-- Generator: Adobe Illustrator 19.2.1, SVG Export Plug-In . SVG Version: 6.00 Build 0)  -->

<svg
   version="1.1"
   x="0px"
   y="0px"
   viewBox="0 0 128 128"
   xml:space="preserve"
   id="svg489"
   sodipodi:docname="ios.svg"
   width="128"
   height="128"
   inkscape:version="1.2.1 (0f2f062aeb, 2022-09-21, custom)"
   xmlns:inkscape="http://www.inkscape.org/namespaces/inkscape"
   xmlns:sodipodi="http://sodipodi.sourceforge.net/DTD/sodipodi-0.dtd"
   xmlns="http://www.w3.org/2000/svg"
   xmlns:svg="http://www.w3.org/2000/svg"><defs
   id="defs493" /><sodipodi:namedview
   id="namedview491"
   pagecolor="#ffffff"
   bordercolor="#666666"
   borderopacity="1.0"
   inkscape:showpageshadow="2"
   inkscape:pageopacity="0.0"
   inkscape:pagecheckerboard="0"
   inkscape:deskcolor="#d1d1d1"
   showgrid="false"
   inkscape:zoom="1.7447917"
   inkscape:cx="-40.119403"
   inkscape:cy="-2.5791045"
   inkscape:window-width="1600"
   inkscape:window-height="836"
   inkscape:window-x="0"
   inkscape:window-y="27"
   inkscape:window-maximized="1"
   inkscape:current-layer="svg489" />








<g
   id="g524"
   transform="matrix(3.5555556,0,0,3.5555556,-21.333333,-21.333333)"><path
     style="fill:#eceff1"
     d="m 16,42 h 16 c 5.523,0 10,-4.477 10,-10 V 16 C 42,10.477 37.523,6 32,6 H 16 C 10.477,6 6,10.477 6,16 v 16 c 0,5.523 4.477,10 10,10 z"
     id="path431" /><circle
     style="fill:#ffc107"
     cx="12.783"
     cy="18.736"
     r="0.76200002"
     id="circle433" /><g
     id="g439">
	<path
   style="fill:#ff5722"
   d="m 15.982,21.81 1.444,-0.61 c 0.68,-1.22 1.835,-1.927 3.332,-1.927 0.34,0 0.659,0.043 0.962,0.113 l 1.372,-0.579 c -0.676,-0.333 -1.451,-0.526 -2.334,-0.526 -2.39,0 -4.095,1.313 -4.776,3.529 z"
   id="path435" />
	<polygon
   style="fill:#ff5722"
   points="13.297,21.375 12.273,21.375 12.273,23.377 13.297,22.944 "
   id="polygon437" />
</g><g
     id="g449">
	<polygon
   style="fill:#f44336"
   points="13.297,22.944 12.273,23.377 12.273,26.165 13.297,25.733 "
   id="polygon441" />
	<path
   style="fill:#f44336"
   d="m 16.742,24.148 c 0,-1.169 0.246,-2.163 0.684,-2.948 l -1.444,0.61 c -0.214,0.696 -0.333,1.476 -0.333,2.338 0,0.201 0.028,0.382 0.04,0.574 l 1.062,-0.449 C 16.75,24.23 16.742,24.192 16.742,24.148 Z"
   id="path443" />
	<path
   style="fill:#f44336"
   d="m 30.421,18.5 c -0.279,0.086 -0.537,0.195 -0.774,0.327 z"
   id="path445" />
	<path
   style="fill:#f44336"
   d="m 23.092,18.807 -1.372,0.579 c 1.027,0.237 1.828,0.863 2.35,1.796 l 1.022,-0.432 c -0.468,-0.872 -1.151,-1.524 -2,-1.943 z"
   id="path447" />
</g><g
     id="g459">
	<polygon
   style="fill:#e91e63"
   points="13.297,25.733 12.273,26.165 12.273,28.953 13.297,28.521 "
   id="polygon451" />
	<path
   style="fill:#e91e63"
   d="m 30.421,18.5 -0.774,0.327 c -0.983,0.547 -1.577,1.464 -1.577,2.58 0,0.302 0.046,0.571 0.117,0.825 l 1.032,-0.436 c -0.034,-0.132 -0.056,-0.27 -0.056,-0.42 0,-1.227 1.117,-2.117 2.734,-2.117 0.796,0 1.467,0.213 1.958,0.579 l 1.048,-0.443 C 34.209,18.711 33.168,18.282 31.929,18.282 31.381,18.281 30.876,18.36 30.421,18.5 Z"
   id="path453" />
	<path
   style="fill:#e91e63"
   d="m 16.75,24.274 -1.062,0.449 c 0.059,0.959 0.26,1.811 0.597,2.536 l 1.004,-0.424 C 16.954,26.121 16.766,25.26 16.75,24.274 Z"
   id="path455" />
	<path
   style="fill:#e91e63"
   d="m 25.092,20.751 -1.022,0.432 c 0.381,0.682 0.603,1.532 0.658,2.51 l 1.061,-0.448 c -0.094,-0.948 -0.322,-1.793 -0.697,-2.494 z"
   id="path457" />
</g><g
     id="g471">
	<path
   style="fill:#9c27b0"
   d="m 25.609,26.108 c 0.146,-0.602 0.242,-1.247 0.242,-1.96 0,-0.316 -0.033,-0.609 -0.063,-0.904 l -1.061,0.448 c 0.009,0.153 0.03,0.296 0.03,0.456 0,0.968 -0.177,1.809 -0.481,2.523 z"
   id="path461" />
	<path
   style="fill:#9c27b0"
   d="m 17.29,26.834 -1.004,0.424 c 0.408,0.879 1.008,1.568 1.777,2.038 l 1.258,-0.531 C 18.42,28.427 17.727,27.764 17.29,26.834 Z"
   id="path463" />
	<polygon
   style="fill:#9c27b0"
   points="12.273,28.953 12.273,29.789 13.297,29.789 13.297,28.521 "
   id="polygon465" />
	<path
   style="fill:#9c27b0"
   d="m 29.22,21.795 -1.032,0.436 c 0.245,0.866 0.915,1.471 2.129,1.889 l 1.6,-0.676 -0.338,-0.085 C 30.122,22.995 29.406,22.527 29.22,21.795 Z"
   id="path467" />
	<path
   style="fill:#9c27b0"
   d="m 34.719,21.273 h 1.078 C 35.747,20.542 35.418,19.9 34.904,19.394 l -1.048,0.443 c 0.472,0.352 0.779,0.847 0.863,1.436 z"
   id="path469" />
</g><g
     id="g479">
	<path
   style="fill:#3f51b5"
   d="m 25.609,26.108 -1.333,0.563 c -0.629,1.476 -1.85,2.36 -3.519,2.36 -0.528,0 -1.001,-0.103 -1.437,-0.267 l -1.258,0.531 c 0.752,0.459 1.648,0.728 2.695,0.728 2.543,0 4.262,-1.482 4.852,-3.915 z"
   id="path473" />
	<path
   style="fill:#3f51b5"
   d="M 28.828,26.859 H 27.75 c 0.026,0.368 0.127,0.705 0.264,1.021 l 0.989,-0.418 c -0.084,-0.189 -0.15,-0.388 -0.175,-0.603 z"
   id="path475" />
	<path
   style="fill:#3f51b5"
   d="m 32.695,23.641 -0.779,-0.196 -1.6,0.676 c 0.234,0.081 0.487,0.156 0.762,0.224 l 1.289,0.328 c 0.714,0.176 1.257,0.399 1.659,0.669 l 1.205,-0.509 c -0.528,-0.515 -1.353,-0.899 -2.536,-1.192 z"
   id="path477" />
</g><g
     id="g485">
	<path
   style="fill:#03a9f4"
   d="m 29.003,27.463 -0.989,0.418 c 0.377,0.87 1.139,1.531 2.166,1.873 l 1.692,-0.714 c -1.379,-0.033 -2.457,-0.644 -2.869,-1.577 z"
   id="path481" />
	<path
   style="fill:#03a9f4"
   d="m 35.914,27.333 c 0.035,-0.193 0.063,-0.39 0.063,-0.598 0,-0.784 -0.234,-1.404 -0.745,-1.902 l -1.205,0.509 c 0.579,0.39 0.856,0.883 0.856,1.51 0,0.393 -0.131,0.75 -0.348,1.063 z"
   id="path483" />
</g><path
     style="fill:#009688"
     d="m 35.914,27.333 -1.379,0.583 c -0.472,0.682 -1.394,1.132 -2.55,1.132 -0.039,0 -0.074,-0.006 -0.112,-0.007 l -1.692,0.714 c 0.514,0.171 1.086,0.269 1.71,0.269 2.207,-0.001 3.724,-1.06 4.023,-2.691 z"
     id="path487" /></g>
</svg>
