<?xml version="1.0" encoding="UTF-8" standalone="no"?>
<svg
   xmlns:dc="http://purl.org/dc/elements/1.1/"
   xmlns:cc="http://creativecommons.org/ns#"
   xmlns:rdf="http://www.w3.org/1999/02/22-rdf-syntax-ns#"
   xmlns:svg="http://www.w3.org/2000/svg"
   xmlns="http://www.w3.org/2000/svg"
   xmlns:sodipodi="http://sodipodi.sourceforge.net/DTD/sodipodi-0.dtd"
   xmlns:inkscape="http://www.inkscape.org/namespaces/inkscape"
   viewBox="0 0 64 64"
   version="1.1"
   id="svg6"
   sodipodi:docname="JS.svg"
   width="64"
   height="64"
   inkscape:version="0.92.5 (2060ec1f9f, 2020-04-08)">
  <metadata
     id="metadata12">
    <rdf:RDF>
      <cc:Work
         rdf:about="">
        <dc:format>image/svg+xml</dc:format>
        <dc:type
           rdf:resource="http://purl.org/dc/dcmitype/StillImage" />
        <dc:title></dc:title>
      </cc:Work>
    </rdf:RDF>
  </metadata>
  <defs
     id="defs10" />
  <sodipodi:namedview
     pagecolor="#ffffff"
     bordercolor="#666666"
     borderopacity="1"
     objecttolerance="10"
     gridtolerance="10"
     guidetolerance="10"
     inkscape:pageopacity="0"
     inkscape:pageshadow="2"
     inkscape:window-width="1600"
     inkscape:window-height="836"
     id="namedview8"
     showgrid="false"
     fit-margin-top="0"
     fit-margin-left="0"
     fit-margin-right="0"
     fit-margin-bottom="0"
     inkscape:zoom="0.37460317"
     inkscape:cx="315"
     inkscape:cy="315"
     inkscape:window-x="0"
     inkscape:window-y="27"
     inkscape:window-maximized="1"
     inkscape:current-layer="svg6" />
  <rect
     width="64"
     height="64"
     id="rect2"
     x="0"
     y="0"
     style="fill:#f7df1e;stroke-width:0.1015873" />
  <path
     d="m 42.991746,50.00025 c 1.289143,2.10489 2.966349,3.65207 5.932698,3.65207 2.491937,0 4.08381,-1.24546 4.08381,-2.96635 0,-2.06222 -1.635556,-2.79264 -4.378413,-3.99238 l -1.503492,-0.64508 c -4.339809,-1.84889 -7.222857,-4.16508 -7.222857,-9.06159 0,-4.51048 3.436698,-7.94413 8.807619,-7.94413 3.823746,0 6.572699,1.3308 8.553651,4.81524 l -4.683175,3.00699 c -1.031111,-1.84889 -2.143492,-2.57727 -3.870476,-2.57727 -1.761524,0 -2.877968,1.11746 -2.877968,2.57727 0,1.80419 1.11746,2.5346 3.697778,3.65206 l 1.503492,0.64406 c 5.109841,2.19124 7.99492,4.42515 7.99492,9.44762 0,5.41461 -4.25346,8.38095 -9.965714,8.38095 -5.58527,0 -9.193651,-2.66158 -10.959238,-6.15009 z M 21.746794,50.5214 c 0.944762,1.67619 1.80419,3.09333 3.870476,3.09333 1.975873,0 3.222349,-0.77308 3.222349,-3.77905 V 29.38616 h 6.013968 v 20.53079 c 0,6.2273 -3.651047,9.06159 -8.980317,9.06159 -4.815238,0 -7.60381,-2.49194 -9.021968,-5.49333 z"
     id="path4"
     inkscape:connector-curvature="0"
     style="stroke-width:0.1015873" />
</svg>
