<?xml version="1.0" encoding="UTF-8" standalone="no"?>
<!-- Created with Inkscape (http://www.inkscape.org/) -->

<svg
   width="128"
   height="128"
   id="svg3007"
   version="1.1"
   sodipodi:docname="linux-dark.svg"
   inkscape:version="1.2.1 (0f2f062aeb, 2022-09-21, custom)"
   xmlns:inkscape="http://www.inkscape.org/namespaces/inkscape"
   xmlns:sodipodi="http://sodipodi.sourceforge.net/DTD/sodipodi-0.dtd"
   xmlns="http://www.w3.org/2000/svg"
   xmlns:svg="http://www.w3.org/2000/svg"
   xmlns:rdf="http://www.w3.org/1999/02/22-rdf-syntax-ns#"
   xmlns:cc="http://creativecommons.org/ns#"
   xmlns:dc="http://purl.org/dc/elements/1.1/">
  <sodipodi:namedview
     id="namedview404"
     pagecolor="#ffffff"
     bordercolor="#666666"
     borderopacity="1.0"
     inkscape:showpageshadow="2"
     inkscape:pageopacity="0.0"
     inkscape:pagecheckerboard="0"
     inkscape:deskcolor="#d1d1d1"
     showgrid="false"
     inkscape:zoom="2.6171875"
     inkscape:cx="-78.519403"
     inkscape:cy="38.4"
     inkscape:window-width="1600"
     inkscape:window-height="836"
     inkscape:window-x="0"
     inkscape:window-y="27"
     inkscape:window-maximized="1"
     inkscape:current-layer="svg3007" />
  <defs
     id="defs3009">
    <inkscape:path-effect
       effect="fillet_chamfer"
       id="path-effect406"
       is_visible="true"
       lpeversion="1"
       nodesatellites_param="F,0,0,1,0,20,0,1 @ F,0,0,1,0,20,0,1 @ F,0,0,1,0,20,0,1 @ F,0,0,1,0,20,0,1 @ F,0,0,1,0,20,0,1 @ F,0,0,1,0,20,0,1 @ F,0,0,1,0,20,0,1 @ F,0,0,1,0,20,0,1"
       unit="px"
       method="auto"
       mode="F"
       radius="20"
       chamfer_steps="1"
       flexible="false"
       use_knot_distance="true"
       apply_no_radius="true"
       apply_with_radius="true"
       only_selected="false"
       hide_knots="false" />
    <inkscape:path-effect
       effect="fillet_chamfer"
       id="path-effect330"
       is_visible="true"
       lpeversion="1"
       nodesatellites_param="F,0,0,1,0,40,0,1 @ F,0,0,1,0,40,0,1 @ F,0,0,1,0,40,0,1 @ F,0,0,1,0,40,0,1"
       unit="px"
       method="auto"
       mode="F"
       radius="40"
       chamfer_steps="1"
       flexible="false"
       use_knot_distance="true"
       apply_no_radius="true"
       apply_with_radius="true"
       only_selected="false"
       hide_knots="false" />
  </defs>
  <metadata
     id="metadata3012">
    <rdf:RDF>
      <cc:Work
         rdf:about="">
        <dc:format>image/svg+xml</dc:format>
        <dc:type
           rdf:resource="http://purl.org/dc/dcmitype/StillImage" />
      </cc:Work>
    </rdf:RDF>
  </metadata>
  <path
     style="fill:#eceff1"
     id="rect168"
     width="128"
     height="128"
     x="0"
     y="7.1054274e-15"
     inkscape:label="rect168"
     inkscape:path-effect="#path-effect330"
     d="m 40,0 h 48 a 40,40 45 0 1 40,40 V 88 A 40,40 135 0 1 88,128 H 40 A 40,40 45 0 1 0,88 V 40 A 40,40 135 0 1 40,0 Z"
     sodipodi:type="rect" />
  <path
     style="color:#000000;font-style:normal;font-variant:normal;font-weight:normal;font-stretch:normal;font-size:medium;line-height:normal;font-family:'Bitstream Vera Sans';-inkscape-font-specification:'Bitstream Vera Sans';text-indent:0;text-align:start;text-decoration:none;text-decoration-line:none;letter-spacing:normal;word-spacing:normal;text-transform:none;writing-mode:lr-tb;direction:ltr;baseline-shift:baseline;text-anchor:start;display:inline;overflow:visible;visibility:visible;fill:#000000;fill-opacity:1;stroke:none;stroke-width:45.3819;marker:none;enable-background:accumulate"
     d="M 68.499936,1.3893952 C 67.677941,1.387942 66.820552,1.4213632 65.926452,1.4903394 43.329051,3.2533754 49.32204,26.38041 48.986649,34.124904 c -0.412671,5.663493 -1.598004,10.126719 -5.61877,15.663462 -4.723799,5.441918 -11.374373,14.249717 -14.524924,23.418339 -1.486914,4.327172 -2.194481,8.737757 -1.541026,12.912061 -0.204697,0.17766 -0.399569,0.363633 -0.584865,0.555271 -1.386906,1.434376 -2.411674,3.172341 -3.553524,4.34248 -1.066789,1.03089 -2.586697,1.423003 -4.256949,2.003519 -1.67089,0.580789 -3.5054,1.437033 -4.618959,3.507086 0,0 0,7.16e-4 -7.46e-4,10e-4 -0.0018,0.0038 -0.0038,0.0058 -0.0057,0.0096 v 0 c -1.00805,1.82397 -0.708372,3.924418 -0.400507,5.870458 0.307874,1.94601 0.619549,3.78492 0.205841,5.03256 -1.322396,3.5015 -1.491228,5.92356 -0.560304,7.68044 0.932908,1.76054 2.851046,2.53761 5.018958,2.97626 4.335836,0.87729 10.207695,0.65928 14.8354,3.03536 l 0.397756,-0.72705 -0.393638,0.72922 c 4.954181,2.50925 9.976747,3.4005 13.983873,2.51386 2.90523,-0.64284 5.26359,-2.31869 6.474759,-4.89742 3.134213,-0.0156 6.57346,-1.30086 12.082706,-1.59474 3.737478,-0.29164 8.406245,1.28575 13.776483,0.99688 0.14038,0.56442 0.343539,1.10733 0.621635,1.62319 0.0028,0.006 0.0056,0.01 0.0084,0.0154 2.081783,4.03279 5.949889,5.87737 10.072103,5.56222 4.127652,-0.31556 8.516179,-2.67337 12.063629,-6.76315 l -0.65033,-0.52946 0.6553,0.52363 c 3.38126,-3.97175 8.99357,-5.6187 12.715,-7.79308 1.86071,-1.08724 3.37055,-2.44861 3.4872,-4.42589 0.1166,-1.9763 -1.08109,-4.19107 -3.83514,-7.152623 0,0 -7.5e-4,-7.2e-4 -7.5e-4,-7.2e-4 -0.001,-10e-4 -0.002,-0.002 -0.003,-0.004 -0.90488,-0.990627 -1.33657,-2.826668 -1.80048,-4.781886 -0.46359,-1.954015 -0.98107,-4.061871 -2.63704,-5.427873 v 0 c -0.003,-0.0019 -0.007,-0.0058 -0.01,-0.0078 0,0 0,0 0,0 -0.65906,-0.556336 -1.34393,-0.933917 -2.03363,-1.187615 2.30233,-6.614752 1.399,-13.201468 -0.92506,-19.153553 C 104.57788,61.345837 99.598237,54.980771 95.795201,50.626511 91.538321,45.424881 87.374719,40.486366 87.456739,33.192343 87.583545,22.060056 88.720751,1.4155902 68.499446,1.3888526 Z m 2.737568,17.1503638 c 1.147446,0 2.127442,0.32581 3.134113,1.033641 1.02266,0.719067 1.759411,1.619215 2.353214,2.876231 0.582801,1.225067 0.863207,2.423475 0.890701,3.845625 0,0.0374 0,0.06918 0.011,0.106561 0.011,1.459408 -0.247412,2.70046 -0.819225,3.968133 -0.326277,0.72335 -0.700973,1.330448 -1.149456,1.856075 -0.15226,-0.07092 -0.310386,-0.13892 -0.474389,-0.204232 v 0 c -1.136797,-0.471687 -2.008859,-0.771865 -2.735672,-1.016186 0.263465,-0.306784 0.482847,-0.670649 0.675757,-1.125517 0.291403,-0.687099 0.434355,-1.358232 0.461845,-2.157163 0,-0.03198 0.011,-0.0587 0.011,-0.0959 0.0164,-0.766981 -0.08796,-1.42213 -0.318893,-2.093265 -0.241918,-0.703063 -0.549818,-1.209064 -0.995165,-1.62985 -0.445351,-0.420789 -0.890699,-0.612525 -1.424026,-0.628529 -0.025,-0.0015 -0.04994,-0.0015 -0.07456,-0.0015 -0.501663,0.0015 -0.937266,0.16818 -1.387942,0.533629 -0.472841,0.38351 -0.824722,0.873525 -1.11613,1.555296 -0.2914,0.681769 -0.434355,1.358212 -0.461837,2.162491 -0.0056,0.03198 -0.0056,0.0587 -0.0056,0.09048 -0.0096,0.442101 0.0194,0.847098 0.08986,1.240374 -1.026473,-0.495499 -1.993797,-0.833323 -2.901642,-1.042631 -0.05176,-0.380315 -0.08168,-0.772776 -0.09124,-1.18312 v -0.1118 c -0.0164,-1.454102 0.230924,-2.700462 0.808231,-3.968116 0.577311,-1.267692 1.292068,-2.178496 2.29823,-2.918857 1.006159,-0.740361 1.995823,-1.081245 3.166934,-1.091903 0.0182,0 0.0366,0 0.0548,0 z m -15.705135,1.204588 c 0.761193,0.0017 1.442318,0.248098 2.146857,0.793119 0.764243,0.591211 1.34155,1.347556 1.825387,2.412837 0.483837,1.065282 0.742251,2.130544 0.813725,3.387559 v 0.0096 c 0.03464,0.527933 0.0304,1.024884 -0.0126,1.506181 -0.15054,0.04146 -0.298078,0.08622 -0.442599,0.13446 -0.820757,0.273692 -1.544086,0.646681 -2.174519,1.049955 0.06164,-0.421854 0.07082,-0.849869 0.02354,-1.327098 -0.0056,-0.02674 -0.0056,-0.04786 -0.0056,-0.0746 -0.06598,-0.633837 -0.20343,-1.166477 -0.434353,-1.704444 -0.247412,-0.559243 -0.522324,-0.95341 -0.885205,-1.257018 -0.328852,-0.275126 -0.639571,-0.401471 -0.981419,-0.398973 -0.03536,0 -0.07114,0.0019 -0.10722,0.0038 -0.384873,0.03196 -0.703766,0.213029 -1.006168,0.569899 -0.302396,0.356871 -0.500325,0.798951 -0.643277,1.384834 -0.14296,0.585903 -0.18144,1.161168 -0.12096,1.821627 0,0.02654 0.0056,0.04786 0.0056,0.0746 0.06598,0.639183 0.19792,1.171806 0.434351,1.709775 0.241918,0.553933 0.522324,0.948079 0.885205,1.251688 0.06078,0.05076 0.1209,0.09648 0.18074,0.13738 -0.37745,0.281422 -0.557683,0.411158 -0.866985,0.631337 -0.19838,0.14104 -0.434647,0.308916 -0.709259,0.50501 -0.598869,-0.54349 -1.06606,-1.226519 -1.474542,-2.125873 -0.483837,-1.065261 -0.742252,-2.130543 -0.819226,-3.387579 v -0.0096 c -0.07148,-1.256996 0.05498,-2.338261 0.412363,-3.456785 0.35738,-1.118544 0.835725,-1.928133 1.528484,-2.593958 0.692767,-0.665785 1.39104,-1.001343 2.232258,-1.043929 0.06572,-0.0038 0.13086,-0.0058 0.19536,-0.0038 z m 7.142621,8.720727 c 1.769196,-0.0058 3.898189,0.555288 6.475621,2.160671 1.583175,0.997371 2.815075,1.080721 5.651757,2.257701 l 0.0034,0.0015 0.0034,0.0013 c 1.364844,0.542483 2.165939,1.249596 2.557332,1.994201 0.391384,0.744623 0.400956,1.552081 0.07336,2.401522 -0.655169,1.698904 -2.746464,3.486819 -5.681141,4.374604 l -0.0028,0.0012 -0.0026,0.0011 c -1.430934,0.450393 -2.678698,1.444975 -4.149728,2.259872 -1.47099,0.814857 -3.135525,1.47208 -5.398838,1.34525 0,-1.8e-5 0,0 0,0 -1.926803,-0.10888 -3.078573,-0.742471 -4.120008,-1.553301 -1.041466,-0.810847 -1.949007,-1.829492 -3.277933,-2.585449 l -0.0034,-0.0019 -0.0034,-0.0019 c -2.140589,-1.172096 -3.309251,-2.527732 -3.676026,-3.702966 -0.366788,-1.175254 -0.02258,-2.178419 1.039492,-2.949488 1.194058,-0.866902 2.023521,-1.456583 2.576046,-1.849393 0.548891,-0.390195 0.777255,-0.536495 0.952047,-0.699091 8.94e-4,-0.0013 0.0018,-0.0018 0.0028,-0.0019 0,0 7.46e-4,-0.0013 7.46e-4,-0.0013 0.897187,-0.822705 2.327372,-2.321582 4.483221,-3.040495 0.742001,-0.247438 1.56996,-0.40709 2.49668,-0.410636 z m 12.371526,7.08822 c -0.763467,0.04418 -1.563064,0.424895 -2.494092,0.928454 -0.931037,0.503538 -1.978019,1.147663 -3.11265,1.781984 -2.269256,1.268642 -4.88146,2.481912 -7.477481,2.481912 -2.600056,0 -4.677351,-1.163282 -6.235422,-2.359402 -0.779039,-0.59805 -1.42201,-1.200461 -1.935695,-1.66647 -0.25684,-0.233024 -0.479592,-0.431621 -0.687441,-0.586737 -0.207812,-0.1552 -0.376968,-0.308936 -0.724727,-0.308936 l -0.0166,0.707909 c -0.0249,0.23686 -0.05048,0.229556 -0.04038,0.236026 0.0162,0.0096 0.09692,0.0372 0.19106,0.10754 0.152801,0.11412 0.364911,0.299947 0.616647,0.528321 0.503479,0.456747 1.172496,1.084752 1.996181,1.717077 1.647351,1.264651 3.938338,2.562143 6.836435,2.562143 2.902124,0 5.647874,-1.314078 7.961327,-2.607421 1.156716,-0.646663 2.20728,-1.292184 3.100617,-1.775341 0.893293,-0.483157 1.644887,-0.786123 2.080015,-0.811273 z m 2.579668,3.364407 c 1.927537,7.360867 6.410746,17.992733 9.292226,23.181285 1.531608,2.752792 4.578727,8.601511 5.895227,15.648174 0.834189,-0.0248 1.75272,0.09262 2.736362,0.33637 3.442083,-8.644641 -2.918844,-17.956057 -5.827533,-20.549219 -1.174322,-1.103895 -1.230768,-1.598482 -0.648607,-1.575096 3.155809,2.70358 7.298693,8.141334 8.805977,14.279109 0.687297,2.798732 0.833832,5.740955 0.0964,8.644661 0.360796,0.14532 0.727227,0.303085 1.098597,0.473391 5.525177,2.606414 7.568587,4.872893 6.586097,7.966222 -0.3236,-0.0116 -0.6419,-0.0096 -0.95238,-0.0019 -0.029,7.36e-4 -0.0577,0.0015 -0.0866,0.0019 0.80011,-2.451976 -0.9724,-4.260446 -5.695561,-6.330694 -4.898859,-2.087937 -8.802543,-1.880216 -9.46232,2.354248 -0.04222,0.221844 -0.07618,0.447895 -0.10206,0.677101 -0.365997,0.12304 -0.733985,0.280338 -1.102896,0.475891 -2.300339,1.219352 -3.555891,3.431813 -4.254202,6.145429 -0.697747,2.711428 -0.89778,5.989383 -1.09035,9.674157 0,7.3e-4 0,0.001 0,0.002 -0.11766,1.85284 -0.903993,4.35886 -1.701507,7.01315 -8.025086,5.54555 -19.163136,7.9482 -28.619765,1.69611 -0.640876,-0.98214 -1.376046,-1.95524 -2.132777,-2.915 -0.483236,-0.61289 -0.979641,-1.22206 -1.473162,-1.82263 0.970774,7.3e-4 1.795935,-0.15326 2.462832,-0.44623 0.829327,-0.36429 1.412028,-0.94944 1.700304,-1.70061 0.576549,-1.50237 -0.0026,-3.621725 -1.848238,-6.041925 -1.845605,-2.420026 -4.971398,-5.151256 -9.564557,-7.880158 0,0 -7.48e-4,0 -7.48e-4,-7.18e-4 -3.374391,-2.033745 -5.26155,-4.526505 -6.144863,-7.233031 -0.883399,-2.706738 -0.759533,-5.633616 -0.0787,-8.523312 1.30681,-5.546701 4.664491,-10.941307 6.806882,-14.326736 0.576795,-0.411138 0.206078,0.763165 -2.168847,5.035566 -2.128463,3.906194 -6.107629,12.920781 -0.659437,19.957524 0.1456,-5.007706 1.380084,-10.11494 3.452495,-14.892159 3.018625,-6.62876 9.332498,-18.123825 9.833969,-27.285567 0.25855,0.181941 1.147027,0.762621 1.542918,0.980728 7.46e-4,0.0012 0.0017,0.0012 0.0026,0.0013 1.158292,0.660787 2.028217,1.626712 3.154913,2.5039 1.128925,0.878933 2.53926,1.638086 4.669991,1.758366 v 0 c 2.487004,0.1395 4.382464,-0.606827 5.935427,-1.46708 1.550626,-0.858975 2.789378,-1.809595 3.96297,-2.180647 0.0018,-0.0012 0.0036,-0.0012 0.0052,-0.0016 2.479905,-0.751269 4.45169,-2.080981 5.573746,-3.6319 z m 15.751182,42.140778 c 1.004467,-0.0038 2.221249,0.3199 3.553181,0.897143 3.584793,1.60325 4.706413,2.977446 3.727753,4.996137 -0.824725,1.523329 -4.354544,3.946822 -6.773732,3.307657 -2.468665,-0.617853 -3.672765,-4.064002 -3.271403,-6.668596 0.214995,-1.768672 1.24765,-2.525483 2.764201,-2.532341 z m -4.05592,4.759587 c 0.20264,3.18505 1.829296,6.433439 4.706073,7.136482 3.1481,0.803544 7.687011,-1.813158 9.603381,-3.9475 0.38213,-0.0156 0.75572,-0.03294 1.11854,-0.04146 1.68102,-0.03934 3.09094,0.05368 4.5315,1.274144 l 0.005,0.0038 0.005,0.0038 c 1.10704,0.908596 1.63325,2.625654 2.08965,4.549213 0.45637,1.923539 0.82132,4.01849 2.18998,5.510935 l 0.002,0.002 0.002,0.002 c 2.63129,2.82869 3.47707,4.74066 3.40508,5.96102 -0.072,1.22038 -0.9841,2.12634 -2.66832,3.1104 -3.36699,1.96732 -9.3328,3.67807 -13.14333,8.14951 -3.308744,3.81455 -7.343392,5.90956 -10.896655,6.18123 -3.553261,0.27164 -6.618888,-1.15702 -8.426267,-4.67123 l -0.0042,-0.008 -0.0042,-0.008 c -1.121241,-2.06628 -0.654165,-5.32713 0.290367,-8.76667 0.944549,-3.43958 2.301617,-6.97127 2.483277,-9.84179 v -0.004 -0.004 c 0.192181,-3.677908 0.404675,-6.889795 1.042422,-9.368043 0.637739,-2.478229 1.641939,-4.156654 3.421227,-5.099813 0.08286,-0.04398 0.1651,-0.08526 0.246897,-0.12458 z m -57.780435,0.240366 c 0.265566,0.001 0.546607,0.02248 0.846029,0.06646 2.014077,0.295569 3.770424,1.659787 5.46258,3.883252 1.692171,2.223485 3.266699,5.25869 4.885288,8.625537 l 0.002,0.0038 0.0019,0.0038 c 1.300696,2.629919 4.045382,5.521689 6.371333,8.471719 2.32594,2.95003 4.12607,5.9112 3.891652,8.17762 l -10e-4,0.01 -7.46e-4,0.01 c -0.303242,3.86548 -2.554072,5.96981 -6.009319,6.73435 -3.454219,0.76429 -8.136934,0.002 -12.814127,-2.36558 -0.0013,-7.1e-4 -0.0028,-0.001 -0.0042,-0.002 -5.17466,-2.65475 -11.330555,-2.39103 -15.279376,-3.19 -1.974947,-0.39962 -3.263608,-1.00038 -3.855064,-2.11658 -0.591496,-1.11618 -0.604697,-3.06357 0.65221,-6.38395 l 0.0055,-0.0156 0.005,-0.0156 c 0.62159,-1.85727 0.161585,-3.88962 -0.140202,-5.7972 -0.301787,-1.90759 -0.449372,-3.642725 0.223019,-4.852117 l 0.0031,-0.0058 0.0031,-0.0058 c 0.860884,-1.607571 2.123617,-2.182235 3.690811,-2.726926 1.567184,-0.544713 3.425531,-0.972496 4.893009,-2.397184 l 0.0076,-0.0078 0.0076,-0.0078 c 1.356626,-1.386442 2.375664,-3.124311 3.5683,-4.357786 1.006287,-1.040734 2.013309,-1.730505 3.531193,-1.740717 0.0176,0 0.03522,0 0.05292,0 z"
     id="path154" />
</svg>
