<?xml version="1.0" encoding="UTF-8" standalone="no"?>
<!-- Created with Inkscape (http://www.inkscape.org/) -->

<svg
   width="105.74413"
   height="128"
   id="svg3007"
   version="1.1"
   inkscape:version="1.2.1 (0f2f062aeb, 2022-09-21, custom)"
   sodipodi:docname="linux.svg"
   xmlns:inkscape="http://www.inkscape.org/namespaces/inkscape"
   xmlns:sodipodi="http://sodipodi.sourceforge.net/DTD/sodipodi-0.dtd"
   xmlns="http://www.w3.org/2000/svg"
   xmlns:svg="http://www.w3.org/2000/svg"
   xmlns:rdf="http://www.w3.org/1999/02/22-rdf-syntax-ns#"
   xmlns:cc="http://creativecommons.org/ns#"
   xmlns:dc="http://purl.org/dc/elements/1.1/">
  <defs
     id="defs3009" />
  <sodipodi:namedview
     id="base"
     pagecolor="#ffffff"
     bordercolor="#666666"
     borderopacity="1.0"
     inkscape:pageopacity="0.0"
     inkscape:pageshadow="2"
     inkscape:zoom="2.8"
     inkscape:cx="124.64286"
     inkscape:cy="60.892857"
     inkscape:document-units="px"
     inkscape:current-layer="svg3007"
     showgrid="false"
     inkscape:window-width="1600"
     inkscape:window-height="836"
     inkscape:window-x="0"
     inkscape:window-y="27"
     inkscape:window-maximized="1"
     units="cm"
     fit-margin-top="0"
     fit-margin-left="0"
     fit-margin-right="0"
     fit-margin-bottom="0"
     inkscape:showpageshadow="2"
     inkscape:pagecheckerboard="0"
     inkscape:deskcolor="#d1d1d1" />
  <metadata
     id="metadata3012">
    <rdf:RDF>
      <cc:Work
         rdf:about="">
        <dc:format>image/svg+xml</dc:format>
        <dc:type
           rdf:resource="http://purl.org/dc/dcmitype/StillImage" />
      </cc:Work>
    </rdf:RDF>
  </metadata>
  <path
     inkscape:connector-curvature="0"
     style="color:#000000;font-style:normal;font-variant:normal;font-weight:normal;font-stretch:normal;font-size:medium;line-height:normal;font-family:'Bitstream Vera Sans';-inkscape-font-specification:'Bitstream Vera Sans';text-indent:0;text-align:start;text-decoration:none;text-decoration-line:none;letter-spacing:normal;word-spacing:normal;text-transform:none;writing-mode:lr-tb;direction:ltr;baseline-shift:baseline;text-anchor:start;display:inline;overflow:visible;visibility:visible;fill:#000000;fill-opacity:1;stroke:none;stroke-width:46.1079;marker:none;enable-background:accumulate"
     d="M 55.56079,5.600017e-4 C 54.738794,-9.4000285e-4 53.881403,0.0335601 52.987303,0.10476032 30.389866,1.9246658 36.382864,25.797698 36.047473,33.792002 c -0.412671,5.846178 -1.598007,10.453372 -5.618779,16.168709 -4.723806,5.617457 -11.37439,14.709365 -14.524945,24.173734 -1.486917,4.466753 -2.194485,9.019607 -1.54103,13.32856 -0.204696,0.1834 -0.399568,0.375361 -0.584866,0.573182 -1.386908,1.480644 -2.411677,3.27467 -3.553528,4.482553 -1.0667917,1.064143 -2.5867011,1.468905 -4.2569555,2.068147 -1.6708931,0.599521 -3.5054062,1.483384 -4.6189668,3.62021 0,0 0,7.4e-4 -7.46e-4,10e-4 -0.00182,0.004 -0.0038,0.006 -0.00569,0.01 v 0 c -1.00805125,1.882803 -0.70837324,4.051013 -0.40050759,6.059823 0.30787479,2.00878 0.61955029,3.90701 0.20584189,5.19489 -1.32239809,3.61445 -1.49123118,6.11464 -0.5603057,7.92819 0.9329101,1.81732 2.851051,2.61946 5.0189666,3.07226 4.3358431,0.90559 10.2077111,0.68055 14.8354221,3.13327 l 0.397757,-0.7505 -0.393639,0.75274 c 4.954189,2.59019 9.976762,3.5102 13.983894,2.59495 2.905235,-0.66358 5.263598,-2.39348 6.47477,-5.05539 3.134217,-0.016 6.57347,-1.34283 12.082725,-1.64619 3.737483,-0.30104 8.406257,1.32723 13.776503,1.02905 0.140381,0.58262 0.343539,1.14304 0.621636,1.67554 0.0028,0.006 0.0056,0.01 0.0084,0.016 2.081786,4.16287 5.949898,6.06696 10.072119,5.74164 4.127658,-0.32574 8.516191,-2.75961 12.063648,-6.9813 l -0.650336,-0.54655 0.655308,0.54053 c 3.381258,-4.09988 8.993589,-5.79994 12.715011,-8.04447 1.86072,-1.1223 3.37056,-2.52759 3.48722,-4.56865 0.1166,-2.04005 -1.0811,-4.32625 -3.83515,-7.38334 0,0 -7.5e-4,-7.4e-4 -7.5e-4,-7.4e-4 -10e-4,-0.001 -0.002,-0.002 -0.003,-0.004 -0.90489,-1.022588 -1.33657,-2.917854 -1.80048,-4.93614 -0.463592,-2.017046 -0.981072,-4.192893 -2.637049,-5.602957 v 0 c -0.0034,-0.002 -0.0066,-0.006 -0.01,-0.008 0,0 0,0 0,0 C 96.790711,89.854512 96.105837,89.464751 95.416133,89.20287 97.718466,82.37475 96.815135,75.575569 94.491074,69.43149 91.638796,61.890987 86.659145,55.320608 82.856103,50.825894 78.599216,45.456478 74.435607,40.358662 74.517628,32.829359 74.644428,21.337985 75.781636,0.02760008 55.5603,0 Z M 58.298363,17.704134 c 1.147447,0 2.127444,0.336321 3.134117,1.066983 1.022661,0.742262 1.759413,1.671445 2.353217,2.969009 0.582802,1.264584 0.863209,2.501647 0.890703,3.969672 0,0.0386 0,0.0714 0.011,0.11 0.011,1.506485 -0.247413,2.787569 -0.819227,4.096133 -0.326277,0.746682 -0.700974,1.373364 -1.149457,1.915945 -0.15226,-0.0732 -0.310387,-0.1434 -0.474389,-0.21082 v 0 c -1.1368,-0.486902 -2.008863,-0.796763 -2.735677,-1.048963 0.263465,-0.316681 0.482848,-0.692282 0.675758,-1.161824 0.291403,-0.709262 0.434356,-1.402044 0.461846,-2.226747 0,-0.033 0.011,-0.0606 0.011,-0.099 0.0164,-0.791722 -0.08796,-1.468004 -0.318893,-2.160787 -0.241919,-0.725742 -0.54982,-1.248063 -0.995167,-1.682425 -0.445352,-0.434361 -0.890701,-0.632282 -1.424029,-0.648802 -0.025,-0.0015 -0.04994,-0.0015 -0.07456,-0.0015 -0.501663,0.0015 -0.937267,0.173601 -1.387944,0.550842 -0.472841,0.395881 -0.824722,0.901703 -1.116131,1.605465 -0.291401,0.703762 -0.434356,1.402024 -0.461838,2.232247 -0.0056,0.033 -0.0056,0.0606 -0.0056,0.0934 -0.0096,0.456361 0.0194,0.874423 0.08986,1.280384 -1.026475,-0.511482 -1.9938,-0.860203 -2.901646,-1.076263 -0.05176,-0.392582 -0.08168,-0.797703 -0.09124,-1.221284 v -0.1154 c -0.0164,-1.501005 0.230925,-2.787569 0.808233,-4.096113 0.577312,-1.308584 1.29207,-2.248767 2.298233,-3.013009 1.006161,-0.764242 1.995826,-1.116123 3.166939,-1.127123 0.0182,0 0.0366,0 0.0548,0 z m -15.70516,1.243443 c 0.761194,0.0018 1.44232,0.256101 2.146861,0.818703 0.764244,0.610282 1.341552,1.391024 1.825389,2.490667 0.483838,1.099644 0.742252,2.199267 0.813727,3.496831 v 0.01 c 0.03464,0.544962 0.0304,1.057943 -0.0126,1.554765 -0.15054,0.0428 -0.298078,0.089 -0.442599,0.1388 -0.820758,0.282521 -1.544089,0.667542 -2.174522,1.083823 0.06164,-0.435461 0.07082,-0.877282 0.02354,-1.369904 -0.0056,-0.0276 -0.0056,-0.0494 -0.0056,-0.077 -0.06598,-0.654282 -0.203431,-1.204104 -0.434354,-1.759425 -0.247412,-0.577282 -0.522325,-0.984163 -0.885206,-1.297564 -0.328853,-0.284001 -0.639572,-0.414421 -0.981421,-0.411841 -0.03536,0 -0.07114,0.002 -0.107221,0.004 -0.384873,0.033 -0.703766,0.2199 -1.006169,0.588281 -0.302397,0.368381 -0.500325,0.824723 -0.643278,1.429505 -0.14296,0.604802 -0.18144,1.198623 -0.12096,1.880385 0,0.0274 0.0056,0.0494 0.0056,0.077 0.06598,0.659802 0.197921,1.209603 0.434351,1.764925 0.241919,0.571802 0.522326,0.978663 0.885207,1.292064 0.06078,0.0524 0.1209,0.0996 0.180741,0.1418 -0.377452,0.290501 -0.557684,0.424422 -0.866987,0.651702 -0.198381,0.145601 -0.434647,0.318881 -0.70926,0.521302 C 39.919571,31.415375 39.45238,30.710313 39.043896,29.78195 38.560059,28.682327 38.301644,27.582684 38.22467,26.2851 v -0.01 c -0.07148,-1.297544 0.05498,-2.413688 0.412363,-3.568291 0.357381,-1.154624 0.835727,-1.990326 1.528487,-2.677628 0.692768,-0.687262 1.391042,-1.033643 2.23226,-1.077604 0.06572,-0.004 0.130861,-0.006 0.195361,-0.004 z m 7.142632,9.002028 c 1.769199,-0.006 3.898195,0.573201 6.475631,2.230366 1.583177,1.029544 2.815079,1.115584 5.651765,2.330527 l 0.0034,0.0015 0.0034,0.0014 c 1.364847,0.559982 2.165943,1.289904 2.557336,2.058527 0.391385,0.768642 0.400957,1.602145 0.07336,2.478987 -0.65517,1.753706 -2.746468,3.599291 -5.681149,4.515714 l -0.0028,0.0012 -0.0026,0.0012 c -1.430936,0.464921 -2.678702,1.491584 -4.149734,2.332767 -1.470993,0.841143 -3.13553,1.519565 -5.398847,1.388644 0,-2e-5 0,0 0,0 -1.926806,-0.1124 -3.078577,-0.766422 -4.120014,-1.603405 -1.041467,-0.837002 -1.94901,-1.888505 -3.277938,-2.668848 l -0.0034,-0.002 -0.0034,-0.002 c -2.140593,-1.209903 -3.309256,-2.609268 -3.676031,-3.822411 -0.366789,-1.213164 -0.02258,-2.248687 1.039493,-3.04463 1.194059,-0.894862 2.023524,-1.503564 2.57605,-1.909045 0.548891,-0.402782 0.777256,-0.553802 0.952049,-0.721643 8.94e-4,-0.0013 0.0018,-0.0019 0.0028,-0.002 0,0 7.46e-4,-0.0014 7.46e-4,-0.0014 0.897188,-0.849242 2.327375,-2.396467 4.483227,-3.138569 0.742002,-0.255421 1.569963,-0.420221 2.496684,-0.423881 z m 12.371545,7.316862 c -0.763468,0.0456 -1.563067,0.438601 -2.494095,0.958403 -0.931039,0.519781 -1.978022,1.184683 -3.112656,1.839465 -2.269259,1.309564 -4.881467,2.561968 -7.477493,2.561968 -2.600059,0 -4.677358,-1.200804 -6.23543,-2.435507 -0.779041,-0.617342 -1.422013,-1.239184 -1.935698,-1.720226 -0.256841,-0.24054 -0.479594,-0.445541 -0.687442,-0.605661 -0.207813,-0.160201 -0.376969,-0.318901 -0.724729,-0.318901 l -0.0166,0.730742 c -0.0249,0.244501 -0.05048,0.236961 -0.04038,0.243641 0.0162,0.01 0.09692,0.0384 0.191061,0.111 0.1528,0.1178 0.364911,0.309621 0.616648,0.545362 0.503479,0.471481 1.172497,1.119743 1.996184,1.772465 1.647353,1.305444 3.938344,2.644788 6.836444,2.644788 2.902129,0 5.647884,-1.356464 7.961341,-2.691528 1.156717,-0.667522 2.207282,-1.333864 3.100621,-1.832606 0.893295,-0.498741 1.644889,-0.811482 2.080018,-0.837442 z m 2.579672,3.47293 c 1.92754,7.598303 6.410755,18.573117 9.29224,23.929033 1.531611,2.841588 4.578734,8.878967 5.895236,16.152929 0.83419,-0.0256 1.752723,0.0956 2.736366,0.347221 3.442089,-8.923487 -2.918849,-18.535256 -5.827541,-21.212064 -1.174324,-1.139504 -1.23077,-1.650045 -0.648608,-1.625905 3.155813,2.790788 7.298704,8.403945 8.80599,14.739704 0.687298,2.889009 0.833833,5.926138 0.0964,8.923507 0.360797,0.150001 0.727228,0.312861 1.098599,0.488662 5.525191,2.690488 7.568595,5.030075 6.586108,8.223185 -0.323597,-0.012 -0.641906,-0.01 -0.952379,-0.002 -0.02898,7.6e-4 -0.05774,0.0015 -0.0866,0.002 0.800108,-2.531068 -0.972401,-4.397874 -5.695574,-6.5349 -4.898866,-2.155287 -8.802556,-1.940866 -9.462334,2.430187 -0.04222,0.229001 -0.07618,0.462342 -0.102061,0.698942 -0.365997,0.127001 -0.733986,0.289381 -1.102897,0.491242 -2.300343,1.258684 -3.555897,3.542511 -4.254209,6.343659 -0.697748,2.798889 -0.89778,6.182579 -1.090351,9.986211 0,7.6e-4 0,0.001 0,0.002 -0.11766,1.91261 -0.903995,4.49945 -1.701509,7.23936 -8.025098,5.72444 -19.163166,8.20459 -28.619809,1.75083 -0.640878,-1.01383 -1.376048,-2.01831 -2.13278,-3.00903 -0.483238,-0.63266 -0.979643,-1.26149 -1.473165,-1.88143 0.970775,7.6e-4 1.795938,-0.1582 2.462836,-0.46062 0.829328,-0.37604 1.41203,-0.98006 1.700307,-1.75546 0.57655,-1.55083 -0.0026,-3.73856 -1.848242,-6.236824 -1.845607,-2.498087 -4.971405,-5.317416 -9.564571,-8.134344 0,0 -7.48e-4,0 -7.48e-4,-7.4e-4 -3.374396,-2.099347 -5.261558,-4.672515 -6.144872,-7.466343 -0.883401,-2.794049 -0.759535,-5.815338 -0.0787,-8.798247 1.306812,-5.725617 4.664499,-11.294234 6.806893,-14.788865 0.576796,-0.424401 0.206079,0.787783 -2.168851,5.197996 -2.128466,4.032192 -6.107638,13.337561 -0.659438,20.601283 0.145601,-5.169236 1.380087,-10.441212 3.452501,-15.372527 3.018629,-6.842581 9.332512,-18.708437 9.833984,-28.165705 0.25855,0.1878 1.147029,0.787222 1.54292,1.012363 7.46e-4,0.0012 0.0017,0.0012 0.0026,0.0013 1.158294,0.682102 2.028221,1.679185 3.154918,2.584668 1.128927,0.907282 2.539264,1.690925 4.669998,1.815085 v 0 c 2.487008,0.144001 4.382471,-0.626402 5.935436,-1.514404 1.550629,-0.886683 2.789382,-1.867966 3.962976,-2.250987 0.0018,-0.0012 0.0036,-0.0012 0.0052,-0.0017 2.47991,-0.775503 4.451698,-2.148107 5.573755,-3.749052 z m 15.751206,43.500092 c 1.004469,-0.004 2.221252,0.330221 3.553186,0.926083 3.584797,1.654965 4.706423,3.073489 3.727754,5.157296 -0.824721,1.572464 -4.354545,4.074132 -6.773737,3.41435 -2.468669,-0.637782 -3.672771,-4.195093 -3.271408,-6.883701 0.214995,-1.825725 1.247652,-2.606948 2.764205,-2.614028 z m -4.055927,4.913115 c 0.202641,3.28779 1.8293,6.64096 4.706081,7.366682 3.148105,0.829463 7.687023,-1.871645 9.603401,-4.074832 0.382123,-0.016 0.755714,-0.034 1.118533,-0.0428 1.681029,-0.0406 3.090955,0.0554 4.53152,1.315244 l 0.005,0.004 0.0052,0.004 c 1.107037,0.937903 1.633251,2.710348 2.089646,4.695954 0.45637,1.985586 0.821321,4.148108 2.189988,5.688698 l 0.002,0.002 0.002,0.002 c 2.63129,2.91993 3.47707,4.89357 3.40508,6.1533 -0.072,1.25974 -0.9841,2.19492 -2.66832,3.21073 -3.366991,2.03078 -9.332821,3.79671 -13.143357,8.41238 -3.308748,3.9376 -7.343402,6.10018 -10.896671,6.38062 -3.553267,0.2804 -6.618898,-1.19434 -8.426279,-4.82191 l -0.0042,-0.008 -0.0042,-0.008 c -1.121244,-2.13293 -0.654166,-5.49896 0.290367,-9.04945 0.94455,-3.55053 2.301621,-7.19614 2.483281,-10.15925 v -0.004 -0.004 c 0.192181,-3.796552 0.404675,-7.112042 1.042423,-9.67023 0.63774,-2.558167 1.641941,-4.290733 3.421233,-5.264316 0.08286,-0.0454 0.1651,-0.088 0.246896,-0.1286 z m -57.780523,0.248121 c 0.265568,0.001 0.546607,0.0232 0.84603,0.0686 2.014081,0.305101 3.77043,1.713325 5.462589,4.008512 1.692174,2.295207 3.266704,5.428317 4.885295,8.903763 l 0.002,0.004 0.0019,0.004 c 1.300698,2.71475 4.045389,5.6998 6.371344,8.74499 2.325943,3.04519 4.126076,6.10188 3.891657,8.44141 l -0.001,0.01 -7.46e-4,0.01 c -0.303243,3.99017 -2.554075,6.16237 -6.009328,6.95158 -3.454224,0.78894 -8.136947,0.002 -12.814147,-2.44189 -0.0013,-7.4e-4 -0.0028,-10e-4 -0.0042,-0.002 -5.174667,-2.74071 -11.3305716,-2.46849 -15.2793992,-3.29323 -1.9749502,-0.4125 -3.2636131,-1.03264 -3.8550696,-2.18485 -0.5914973,-1.15218 -0.6046983,-3.16239 0.6522111,-6.58988 l 0.00552,-0.016 0.00498,-0.016 C 3.382985,108.08635 2.9229789,105.98844 2.6211919,104.01934 2.3194046,102.05021 2.1718192,100.2591 2.8442114,99.0107 l 0.0031,-0.006 0.00306,-0.006 c 0.860885,-1.659425 2.1236207,-2.252627 3.6908162,-2.814889 1.5671864,-0.562281 3.425537,-1.003863 4.8930164,-2.474507 l 0.0076,-0.008 0.0076,-0.008 c 1.35663,-1.431165 2.375668,-3.22509 3.568306,-4.498354 1.006288,-1.074303 2.013312,-1.786325 3.531198,-1.796865 0.01756,0 0.03522,0 0.05292,0 z"
     id="path154" />
</svg>
