<?xml version="1.0" encoding="UTF-8" standalone="no"?>
<!-- Created with Inkscape (http://www.inkscape.org/) -->

<svg
   xmlns:dc="http://purl.org/dc/elements/1.1/"
   xmlns:cc="http://creativecommons.org/ns#"
   xmlns:rdf="http://www.w3.org/1999/02/22-rdf-syntax-ns#"
   xmlns:svg="http://www.w3.org/2000/svg"
   xmlns="http://www.w3.org/2000/svg"
   xmlns:sodipodi="http://sodipodi.sourceforge.net/DTD/sodipodi-0.dtd"
   xmlns:inkscape="http://www.inkscape.org/namespaces/inkscape"
   width="52.871906"
   height="63.999805"
   id="svg3007"
   version="1.1"
   inkscape:version="0.92.5 (2060ec1f9f, 2020-04-08)"
   sodipodi:docname="os-linux.svg">
  <defs
     id="defs3009" />
  <sodipodi:namedview
     id="base"
     pagecolor="#ffffff"
     bordercolor="#666666"
     borderopacity="1.0"
     inkscape:pageopacity="0.0"
     inkscape:pageshadow="2"
     inkscape:zoom="0.35"
     inkscape:cx="345.28122"
     inkscape:cy="375.85528"
     inkscape:document-units="px"
     inkscape:current-layer="svg3007"
     showgrid="false"
     inkscape:window-width="1600"
     inkscape:window-height="836"
     inkscape:window-x="0"
     inkscape:window-y="27"
     inkscape:window-maximized="1"
     units="cm"
     fit-margin-top="0"
     fit-margin-left="0"
     fit-margin-right="0"
     fit-margin-bottom="0" />
  <metadata
     id="metadata3012">
    <rdf:RDF>
      <cc:Work
         rdf:about="">
        <dc:format>image/svg+xml</dc:format>
        <dc:type
           rdf:resource="http://purl.org/dc/dcmitype/StillImage" />
        <dc:title></dc:title>
      </cc:Work>
    </rdf:RDF>
  </metadata>
  <path
     inkscape:connector-curvature="0"
     style="color:#000000;font-style:normal;font-variant:normal;font-weight:normal;font-stretch:normal;font-size:medium;line-height:normal;font-family:'Bitstream Vera Sans';-inkscape-font-specification:'Bitstream Vera Sans';text-indent:0;text-align:start;text-decoration:none;text-decoration-line:none;letter-spacing:normal;word-spacing:normal;text-transform:none;writing-mode:lr-tb;direction:ltr;baseline-shift:baseline;text-anchor:start;display:inline;overflow:visible;visibility:visible;fill:#000000;fill-opacity:1;stroke:none;stroke-width:23.05391884;marker:none;enable-background:accumulate"
     d="m 27.780311,2.8e-4 c -0.410997,-7.5e-4 -0.839691,0.0165 -1.28674,0.0521 -11.298684,0.90995 -8.302194,12.84643 -8.469889,16.84357 -0.206335,2.92308 -0.799001,5.22667 -2.809381,8.08433 -2.361896,2.80872 -5.6871777,7.35466 -7.2624505,12.08683 -0.7434562,2.23337 -1.0972391,4.50979 -0.7705129,6.66426 -0.1023474,0.0917 -0.1997834,0.18768 -0.2924318,0.28659 -0.6934522,0.74032 -1.2058349,1.63733 -1.7767589,2.24127 -0.5333941,0.53207 -1.2933465,0.73445 -2.1284712,1.03407 -0.835444,0.29976 -1.7526978,0.74169 -2.30947637,1.8101 0,0 0,3.7e-4 -3.7304e-4,5.2e-4 -9.0873e-4,0.002 -0.0019,0.003 -0.002847,0.005 v 0 c -0.50402412,0.9414 -0.35418557,2.0255 -0.20025321,3.0299 0.15393692,1.00439 0.30977422,1.9535 0.10292061,2.59744 -0.66119702,1.80722 -0.74561331,3.05731 -0.28015198,3.96408 0.46645366,0.90866 1.42552119,1.30973 2.50947569,1.53613 2.167915,0.45279 5.10384,0.34027 7.4176886,1.56663 l 0.198878,-0.37525 -0.196819,0.37637 c 2.477087,1.29509 4.988366,1.75509 6.991926,1.29747 1.452613,-0.33179 2.631791,-1.19674 3.237375,-2.52769 1.567104,-0.008 3.286725,-0.67141 6.041344,-0.82309 1.868736,-0.15052 4.203116,0.66361 6.888231,0.51452 0.07019,0.29131 0.171769,0.57152 0.310817,0.83777 0.0014,0.003 0.0028,0.005 0.0042,0.008 1.04089,2.08143 2.97494,3.03347 5.036044,2.87081 2.063823,-0.16287 4.258083,-1.3798 6.031806,-3.49064 l -0.325167,-0.27327 0.327653,0.27026 c 1.690624,-2.04993 4.496781,-2.89996 6.357489,-4.02222 0.930358,-0.56115 1.685274,-1.26379 1.743602,-2.28432 0.0583,-1.02002 -0.540547,-2.16312 -1.917569,-3.69166 0,0 -3.73e-4,-3.7e-4 -3.73e-4,-3.7e-4 -5.22e-4,-6.7e-4 -0.0011,-10e-4 -0.0016,-0.002 -0.452443,-0.51129 -0.668285,-1.45892 -0.900239,-2.46806 -0.231796,-1.00852 -0.490535,-2.09644 -1.318521,-2.80147 v 0 c -0.0017,-10e-4 -0.0033,-0.003 -0.005,-0.004 0,0 0,0 0,0 -0.329527,-0.28714 -0.671963,-0.48202 -1.016814,-0.61296 1.151163,-3.41405 0.699499,-6.81363 -0.462528,-9.88566 -1.426135,-3.77024 -3.915953,-7.05542 -5.817468,-9.30277 -2.128437,-2.6847 -4.210235,-5.2336 -4.169225,-8.99824 C 37.322101,10.66896 37.890703,0.0138 27.780066,0 Z m 1.368782,8.85176 c 0.573722,0 1.063719,0.16816 1.567054,0.53349 0.511329,0.37113 0.879704,0.83572 1.176605,1.4845 0.2914,0.63229 0.431603,1.25082 0.44535,1.98483 0,0.0193 0,0.0357 0.0055,0.055 0.0055,0.75324 -0.123706,1.39378 -0.409612,2.04806 -0.163138,0.37334 -0.350486,0.68668 -0.574727,0.95797 -0.07613,-0.0366 -0.155193,-0.0717 -0.237194,-0.10541 v 0 C 30.553671,15.56703 30.117641,15.4121 29.754235,15.286 c 0.131732,-0.15834 0.241423,-0.34614 0.337878,-0.58091 0.145701,-0.35463 0.217177,-0.70102 0.230922,-1.11337 0,-0.0165 0.0055,-0.0303 0.0055,-0.0495 0.0082,-0.39586 -0.04398,-0.734 -0.159446,-1.08039 -0.120959,-0.36287 -0.274909,-0.62403 -0.497582,-0.84121 -0.222675,-0.21718 -0.445349,-0.31614 -0.712012,-0.3244 -0.0125,-7.5e-4 -0.02497,-7.5e-4 -0.03728,-7.5e-4 -0.250831,7.5e-4 -0.468632,0.0868 -0.69397,0.27542 -0.23642,0.19794 -0.41236,0.45085 -0.558064,0.80273 -0.1457,0.35188 -0.217177,0.70101 -0.230918,1.11612 -0.0028,0.0165 -0.0028,0.0303 -0.0028,0.0467 -0.0048,0.22818 0.0097,0.43721 0.04493,0.64019 -0.513236,-0.25574 -0.996897,-0.4301 -1.450819,-0.53813 -0.02588,-0.19629 -0.04084,-0.39885 -0.04562,-0.61064 v -0.0577 c -0.0082,-0.7505 0.115462,-1.39378 0.404115,-2.04805 0.288655,-0.65429 0.646033,-1.12438 1.149113,-1.5065 0.503079,-0.38212 0.99791,-0.55806 1.583465,-0.56356 0.0091,0 0.0183,0 0.0274,0 z m -7.852556,0.62172 c 0.380596,9e-4 0.721158,0.12805 1.073427,0.40935 0.382121,0.30514 0.670774,0.69551 0.912692,1.24533 0.241918,0.54982 0.371125,1.09963 0.406862,1.74841 v 0.005 c 0.01732,0.27248 0.0152,0.52897 -0.0063,0.77738 -0.07527,0.0214 -0.149039,0.0445 -0.221299,0.0694 -0.410378,0.14126 -0.772042,0.33377 -1.087258,0.54191 0.03082,-0.21773 0.03541,-0.43864 0.01177,-0.68495 -0.0028,-0.0138 -0.0028,-0.0247 -0.0028,-0.0385 -0.03299,-0.32714 -0.101715,-0.60205 -0.217176,-0.87971 -0.123706,-0.28864 -0.261162,-0.49208 -0.442602,-0.64878 -0.164426,-0.142 -0.319785,-0.20721 -0.490709,-0.20592 -0.01768,0 -0.03557,9.8e-4 -0.05361,0.002 -0.192436,0.0165 -0.351882,0.10995 -0.503083,0.29414 -0.151198,0.18419 -0.250162,0.41236 -0.321638,0.71475 -0.07148,0.3024 -0.09072,0.59931 -0.06048,0.94019 0,0.0137 0.0028,0.0247 0.0028,0.0385 0.03299,0.3299 0.09896,0.6048 0.217175,0.88246 0.120959,0.2859 0.261162,0.48933 0.442602,0.64603 0.03039,0.0262 0.06045,0.0498 0.09037,0.0709 -0.188725,0.14525 -0.278841,0.21221 -0.433492,0.32585 -0.09919,0.0728 -0.217323,0.15944 -0.354629,0.26065 -0.299434,-0.28051 -0.533029,-0.63304 -0.73727,-1.09722 -0.241918,-0.54981 -0.371125,-1.09963 -0.409612,-1.74842 v -0.005 c -0.03574,-0.64877 0.02749,-1.20684 0.206181,-1.78414 0.17869,-0.57731 0.417862,-0.99516 0.764241,-1.33881 0.346383,-0.34363 0.695519,-0.51682 1.116127,-0.5388 0.03286,-0.002 0.06543,-0.003 0.09768,-0.002 z m 3.571305,4.501 c 0.884597,-0.003 1.949092,0.2866 3.237806,1.11518 0.791586,0.51477 1.407535,0.55779 2.825874,1.16526 l 0.0017,7.5e-4 0.0017,6.8e-4 c 0.682421,0.27999 1.082968,0.64495 1.278664,1.02926 0.195692,0.38432 0.200478,0.80107 0.03668,1.23949 -0.327584,0.87685 -1.37323,1.79964 -2.840566,2.25785 l -0.0014,6e-4 -0.0013,5.9e-4 c -0.715466,0.23246 -1.339347,0.74579 -2.074861,1.16638 -0.735494,0.42057 -1.56776,0.75978 -2.699415,0.69432 0,-10e-6 0,0 0,0 -0.9634,-0.0562 -1.539284,-0.38321 -2.060001,-0.8017 -0.520732,-0.4185 -0.974502,-0.94425 -1.638964,-1.33442 l -0.0017,-0.001 -0.0017,-10e-4 c -1.070293,-0.60495 -1.654623,-1.30463 -1.83801,-1.9112 -0.183394,-0.60658 -0.01129,-1.12434 0.519745,-1.52231 0.597028,-0.44743 1.011759,-0.75178 1.288021,-0.95452 0.274445,-0.20139 0.388627,-0.2769 0.476023,-0.36082 4.47e-4,-6.7e-4 9.17e-4,-9.5e-4 0.0014,-0.001 0,0 3.73e-4,-6.8e-4 3.73e-4,-6.8e-4 0.448593,-0.42462 1.163684,-1.19823 2.241607,-1.56928 0.371,-0.12771 0.784979,-0.21011 1.248338,-0.21194 z m 6.185754,3.65842 c -0.381733,0.0228 -0.781531,0.2193 -1.247044,0.4792 -0.465518,0.25989 -0.989008,0.59234 -1.556323,0.91973 -1.134626,0.65478 -2.440726,1.28098 -3.738735,1.28098 -1.300026,0 -2.338672,-0.6004 -3.117706,-1.21775 -0.389519,-0.30867 -0.711004,-0.61959 -0.967846,-0.86011 -0.12842,-0.12027 -0.239796,-0.22277 -0.34372,-0.30283 -0.103906,-0.0801 -0.188484,-0.15945 -0.362363,-0.15945 l -0.0083,0.36537 c -0.01245,0.12225 -0.02524,0.11848 -0.02019,0.12182 0.0081,0.005 0.04846,0.0192 0.09553,0.0555 0.0764,0.0589 0.182455,0.15481 0.308323,0.27268 0.251739,0.23574 0.586247,0.55987 0.998089,0.88623 0.823674,0.65272 1.969166,1.32239 3.418212,1.32239 1.45106,0 2.823933,-0.67823 3.980658,-1.34576 0.578357,-0.33376 1.103638,-0.66693 1.550306,-0.9163 0.446646,-0.24937 0.822442,-0.40574 1.040006,-0.41872 z m 1.289832,1.73646 c 0.963767,3.79914 3.205368,9.28653 4.646106,11.96448 0.765803,1.42079 2.28936,4.43947 2.947609,8.07644 0.417094,-0.0128 0.876359,0.0478 1.368179,0.17361 1.721039,-4.46173 -1.45942,-9.2676 -2.913762,-10.606 -0.58716,-0.56975 -0.615383,-0.82502 -0.324303,-0.81295 1.577902,1.39539 3.649341,4.20196 4.402982,7.36983 0.343648,1.4445 0.416915,2.96306 0.0482,4.46174 0.180398,0.075 0.363613,0.15643 0.549298,0.24433 2.762587,1.34524 3.784286,2.51503 3.293044,4.11158 -0.161798,-0.006 -0.320952,-0.005 -0.476188,-10e-4 -0.01449,3.8e-4 -0.02887,7.6e-4 -0.0433,10e-4 0.400053,-1.26553 -0.486199,-2.19893 -2.847778,-3.26744 -2.449426,-1.07764 -4.401265,-0.97043 -4.731153,1.21509 -0.02111,0.1145 -0.03809,0.23117 -0.05103,0.34947 -0.182998,0.0635 -0.366992,0.14469 -0.551447,0.24562 -1.150168,0.62934 -1.777943,1.77125 -2.127098,3.17182 -0.348873,1.39944 -0.448889,3.09128 -0.545174,4.99309 0,3.8e-4 0,6.8e-4 0,9.9e-4 -0.05883,0.9563 -0.451996,2.24972 -0.850752,3.61967 -4.012537,2.86221 -9.581554,4.10228 -14.309861,0.87541 -0.320438,-0.50691 -0.688022,-1.00915 -1.066387,-1.50451 -0.241618,-0.31633 -0.48982,-0.63074 -0.73658,-0.94071 0.485386,3.8e-4 0.897966,-0.0791 1.231414,-0.23031 0.414663,-0.18802 0.706013,-0.49003 0.850151,-0.87773 0.288274,-0.77541 -0.0013,-1.86927 -0.924118,-3.1184 -0.922801,-1.24904 -2.485695,-2.6587 -4.782271,-4.06716 0,0 -3.74e-4,0 -3.74e-4,-3.7e-4 -1.687193,-1.04967 -2.630771,-2.33625 -3.072427,-3.73316 -0.441699,-1.39702 -0.379766,-2.90766 -0.03935,-4.39911 0.653404,-2.8628 2.332242,-5.6471 3.403436,-7.39441 0.288397,-0.2122 0.103039,0.39389 -1.084422,2.59899 -1.06423,2.01609 -3.05381,6.66876 -0.329718,10.30061 0.0728,-2.58461 0.690041,-5.22059 1.726245,-7.68624 1.50931,-3.42128 4.666242,-9.35419 4.916977,-14.08281 0.129275,0.0939 0.573513,0.39361 0.771458,0.50618 3.73e-4,6e-4 8.72e-4,6e-4 0.0013,6.7e-4 0.579145,0.34105 1.014107,0.83959 1.577454,1.29233 0.564462,0.45364 1.269628,0.84546 2.334992,0.90754 v 0 c 1.2435,0.072 2.191229,-0.3132 2.967709,-0.7572 0.775312,-0.44334 1.394687,-0.93398 1.981482,-1.12549 9.18e-4,-6e-4 0.0018,-6e-4 0.0026,-8.5e-4 1.239951,-0.38775 2.225842,-1.07405 2.786869,-1.87452 z m 7.875579,21.74998 c 0.502233,-0.002 1.110623,0.16511 1.776588,0.46304 1.792393,0.82748 2.353204,1.53674 1.863871,2.57864 -0.412359,0.78623 -2.177266,2.03706 -3.386858,1.70717 -1.234331,-0.31889 -1.83638,-2.09754 -1.635699,-3.44184 0.107497,-0.91286 0.623824,-1.30347 1.382098,-1.30701 z m -2.027957,2.45655 c 0.10132,1.64389 0.914647,3.32047 2.353033,3.68333 1.574048,0.41473 3.8435,-0.93582 4.801686,-2.03741 0.191061,-0.008 0.377856,-0.017 0.559265,-0.0214 0.840512,-0.0203 1.545473,0.0277 2.265753,0.65762 l 0.0025,0.002 0.0026,0.002 c 0.553517,0.46895 0.816623,1.35517 1.04482,2.34797 0.228184,0.99279 0.410659,2.07405 1.094989,2.84434 l 10e-4,10e-4 9.48e-4,0.001 c 1.315641,1.45996 1.738529,2.44678 1.702533,3.07664 -0.036,0.62987 -0.492046,1.09746 -1.334155,1.60536 -1.683491,1.01539 -4.666397,1.89835 -6.571659,4.20618 -1.654369,1.96879 -3.67169,3.05008 -5.448319,3.1903 -1.776628,0.1402 -3.309439,-0.59717 -4.213127,-2.41095 l -0.0021,-0.004 -0.0021,-0.004 c -0.56062,-1.06646 -0.327082,-2.74947 0.145183,-4.52471 0.472274,-1.77526 1.150807,-3.59806 1.241637,-5.07961 v -0.002 -0.002 c 0.09609,-1.89827 0.202337,-3.55601 0.52121,-4.8351 0.318869,-1.27908 0.820968,-2.14536 1.710611,-2.63215 0.04143,-0.0227 0.08255,-0.044 0.123448,-0.0643 z M 9.3008756,43.70023 c 0.1327838,5.2e-4 0.2733031,0.0116 0.423014,0.0343 1.0070374,0.15255 1.8852094,0.85666 2.7312864,2.00425 0.846084,1.1476 1.633347,2.71415 2.44264,4.45187 l 10e-4,0.002 9.47e-4,0.002 c 0.650347,1.35737 2.022688,2.84989 3.185662,4.37248 1.162968,1.52259 2.063032,3.05093 1.945823,4.22069 l -5.22e-4,0.005 -3.73e-4,0.005 c -0.151621,1.99508 -1.277034,3.08118 -3.004655,3.47578 -1.727107,0.39447 -4.068461,10e-4 -6.407054,-1.22094 -6.71e-4,-3.7e-4 -0.0014,-6.7e-4 -0.0021,-0.001 C 8.0292182,59.68131 4.9512752,59.81742 2.9768674,59.40505 1.9893953,59.1988 1.3450658,58.88873 1.0493384,58.31263 0.75359068,57.73654 0.74699018,56.73144 1.375443,55.0177 l 0.00276,-0.008 0.00249,-0.008 C 1.6914874,54.04301 1.461485,52.99406 1.310592,52.00951 1.1596988,51.02495 1.0859063,50.1294 1.4221014,49.5052 l 0.00155,-0.003 0.00153,-0.003 c 0.4304412,-0.82971 1.0618071,-1.12631 1.8454025,-1.40744 0.7835908,-0.28114 1.7127633,-0.50193 2.4465009,-1.23725 l 0.0038,-0.004 0.00379,-0.004 c 0.6783127,-0.71558 1.1878305,-1.61254 1.7841474,-2.24917 0.5031425,-0.53715 1.0066528,-0.89316 1.7655938,-0.89843 0.00878,0 0.017608,0 0.02646,0 z"
     id="path154" />
</svg>
