<?xml version="1.0" encoding="UTF-8" standalone="no"?>
<!-- Generator: Adobe Illustrator 24.3.0, SVG Export Plug-In . SVG Version: 6.00 Build 0)  -->

<svg
   xmlns:dc="http://purl.org/dc/elements/1.1/"
   xmlns:cc="http://creativecommons.org/ns#"
   xmlns:rdf="http://www.w3.org/1999/02/22-rdf-syntax-ns#"
   xmlns:svg="http://www.w3.org/2000/svg"
   xmlns="http://www.w3.org/2000/svg"
   xmlns:sodipodi="http://sodipodi.sourceforge.net/DTD/sodipodi-0.dtd"
   xmlns:inkscape="http://www.inkscape.org/namespaces/inkscape"
   version="1.1"
   x="0px"
   y="0px"
   viewBox="0 0 50.214619 63.999996"
   xml:space="preserve"
   id="svg3"
   sodipodi:docname="raspberry-pi.svg"
   width="50.214619"
   height="63.999996"
   inkscape:version="0.92.5 (2060ec1f9f, 2020-04-08)"><metadata
   id="metadata9"><rdf:RDF><cc:Work
       rdf:about=""><dc:format>image/svg+xml</dc:format><dc:type
         rdf:resource="http://purl.org/dc/dcmitype/StillImage" /><dc:title></dc:title></cc:Work></rdf:RDF></metadata><defs
   id="defs7" /><sodipodi:namedview
   pagecolor="#ffffff"
   bordercolor="#666666"
   borderopacity="1"
   objecttolerance="10"
   gridtolerance="10"
   guidetolerance="10"
   inkscape:pageopacity="0"
   inkscape:pageshadow="2"
   inkscape:window-width="1600"
   inkscape:window-height="836"
   id="namedview5"
   showgrid="false"
   fit-margin-top="0"
   fit-margin-left="0"
   fit-margin-right="0"
   fit-margin-bottom="0"
   inkscape:zoom="0.4609375"
   inkscape:cx="256"
   inkscape:cy="256"
   inkscape:window-x="0"
   inkscape:window-y="27"
   inkscape:window-maximized="1"
   inkscape:current-layer="svg3" />
		<path fill="#C52049"
   id="path5175-4"
   d="m 13.572223,0.01921717 c -0.315268,0.0185 -0.667626,0.12981 -1.057074,0.44508 -0.964348,-0.3709 -1.910151,-0.50072 -2.7446831,0.25963 -1.2981609,-0.16691 -1.7061543,0.18545 -2.039967,0.59345003 -0.2781774,0 -2.1326929,-0.29673 -2.98577,0.96434 -2.1141477,-0.27817 -2.7817732,1.22398 -2.0214219,2.63342 -0.4265385,0.66762 -0.8901675,1.33525 0.1298161,2.61486 -0.3523579,0.70472 -0.1298161,1.48362 0.7047159,2.42942 -0.2225419,1.0014398 0.2225418,1.7061498 1.0014384,2.2625098 -0.1483613,1.37234 1.2610705,2.16978 1.6690639,2.44796 0.1669064,0.79744 0.5007192,1.55779 2.0956025,1.96578 0.2596322,1.18689 1.2239802,1.39089 2.1697832,1.65052 -3.0970409,1.79888 -5.7489981,4.15412 -5.7304529,9.95875 l -0.4450838,0.81599 c -3.54212463,2.15124 -6.7318912,9.08712 -1.7432445,14.70631 0.3338128,1.76179 0.8716223,3.02286 1.3537963,4.43229 0.723261,5.63773 5.4708207,8.28968 6.7318919,8.60495 1.83597,1.39089 3.783211,2.72614 6.435168,3.6534 2.485052,2.57777 5.192644,3.54212 8.011508,3.54212 2.818864,0 5.526456,-0.98289 8.011507,-3.54212 2.651957,-0.92726 4.599198,-2.24397 6.435169,-3.6534 1.242525,-0.31527 5.990085,-2.96722 6.731891,-8.60495 0.482174,-1.40943 1.038529,-2.6705 1.353796,-4.43229 4.988647,-5.61919 1.79888,-12.55507 -1.743244,-14.70631 l -0.445084,-0.81599 c 0.01854,-5.80463 -2.633412,-8.15987 -5.730453,-9.95875 0.927258,-0.24108 1.891606,-0.46363 2.169783,-1.65052 1.613429,-0.42653 1.947241,-1.16834 2.095603,-1.96578 0.426538,-0.27818 1.817425,-1.07562 1.669064,-2.44796 0.778896,-0.55636 1.22398,-1.26107 1.001438,-2.2625098 0.853077,-0.9458 1.075619,-1.70616 0.704716,-2.42942 1.019983,-1.27961 0.556355,-1.94724 0.129816,-2.61486 0.760351,-1.40944 0.09273,-2.91159 -2.039967,-2.65196 -0.853077,-1.26107 -2.689048,-0.98289 -2.98577,-0.96435 -0.315268,-0.40799003 -0.741806,-0.76035003 -2.039967,-0.59344003 -0.834532,-0.76036 -1.780335,-0.63054 -2.744683,-0.25964 -0.389448,-0.31526 -0.741806,-0.42653 -1.057074,-0.44507999831 C 36.011861,-0.01783283 35.474052,0.35302717 34.917697,0.53847717 c -1.390887,-0.46363 -1.706154,0.16691 -2.392325,0.42654 -1.520703,-0.31527 -1.984332,0.38945003 -2.707593,1.11271003 l -0.853077,-0.0185 c -2.281054,1.3538 -3.412308,4.09848 -3.875937,4.09848 -0.445084,0 -1.576338,-2.74468 -3.875938,-4.09848 l -0.853077,0.0185 c -0.723261,-0.74181 -1.18689,-1.44652003 -2.707593,-1.11271003 -0.686171,-0.25963 -1.001438,-0.87162 -2.392325,-0.42654 -0.53781,-0.16691 -1.075619,-0.53780999831 -1.687609,-0.51926 z m 0.09273,1.61342003 c 1.168344,0.42654 1.761789,0.9829 2.392325,1.53925 0.222541,-0.29672 0.537809,-0.50072 0.148361,-1.20543 0.834532,0.48217 1.446522,1.03853 1.910151,1.66906 0.519265,-0.33381 0.296722,-0.76035 0.296722,-1.16834 0.853078,0.70471 1.409433,1.44652 2.077058,2.16978 0.129816,-0.0927 0.241087,-0.42654 0.352358,-0.9458 2.039967,1.98433 4.933012,6.9915198 0.741807,8.9758498 C 18.004519,9.6997872 13.739133,7.5485472 9.0286637,5.9536672 c 6.0642663,3.13413 9.6063913,5.6562698 11.5350873,7.8075098 -0.982893,3.96866 -6.156992,4.15411 -8.048598,4.04284 0.389448,-0.18545 0.704716,-0.40799 0.815987,-0.72326 -0.482174,-0.33381 -2.151238,-0.0371 -3.3381282,-0.68617 0.4450842,-0.0927 0.6676262,-0.18545 0.8716222,-0.51927 -1.1127093,-0.35236 -2.2995992,-0.66762 -3.0043151,-1.24252 0.3709031,0 0.7232611,0.0927 1.2239803,-0.25963 -1.0014384,-0.53781 -2.0585122,-0.96435 -2.8744991,-1.78034 0.5192644,-0.0185 1.0570739,0 1.2239803,-0.204 -0.9087126,-0.55635 -1.669064,-1.18689 -2.3181444,-1.87306 0.723261,0.0927 1.0199835,0.0186 1.1868899,-0.11127 C 5.6163552,9.6997872 4.7447329,9.1063372 4.3367395,8.2347172 c 0.5378095,0.18545 1.0199835,0.24109 1.3723415,-0.0186 -0.2039967,-0.51926 -1.2054351,-0.83453 -1.7803349,-2.05851 0.5563546,0.0556 1.1683448,0.12982 1.2796157,0 -0.2596322,-1.05707 -0.7047159,-1.66906 -1.1497996,-2.28105 1.205435,-0.0186 3.0228602,0 2.9486796,-0.0927 l -0.7418062,-0.76035 c 1.1683448,-0.31527 2.3737798,0.0556 3.2454021,0.33381 0.3894483,-0.31526 -0.018545,-0.70471 -0.482174,-1.09416 1.0014383,0.12982 1.9101513,0.3709 2.7261383,0.68617 0.426538,-0.38945 -0.278178,-0.7789 -0.630536,-1.16834 1.539248,0.29672 2.206874,0.70471 2.855954,1.1127 0.445084,-0.48217 0,-0.87162 -0.315267,-1.26107 z m 22.903267,0 c -0.315268,0.38945 -0.760352,0.7789 -0.296723,1.22398 0.649081,-0.40799 1.298161,-0.81598 2.855954,-1.11271 -0.352358,0.38945 -1.075619,0.7789 -0.630535,1.16835 0.815987,-0.31527 1.724699,-0.53781 2.726138,-0.68617 -0.482174,0.40799 -0.871623,0.79744 -0.482174,1.09416 0.871622,-0.27817 2.077057,-0.64908 3.245402,-0.33381 l -0.741806,0.76035 c -0.07418,0.0927 1.743244,0.0742 2.948679,0.0927 -0.445084,0.61199 -0.890167,1.22398 -1.149799,2.28105 0.11127,0.12982 0.723261,0.0556 1.279615,0 -0.5749,1.22398 -1.576338,1.53925 -1.817425,2.05851 0.352358,0.27818 0.834532,0.204 1.372342,0.0186 -0.407994,0.87162 -1.279616,1.46507 -1.965787,2.1697798 0.166906,0.12982 0.482174,0.204 1.18689,0.11127 -0.630535,0.68617 -1.409432,1.31671 -2.318144,1.87306 0.166906,0.18546 0.704716,0.18546 1.22398,0.204 -0.815987,0.81599 -1.873061,1.24253 -2.874499,1.78034 0.500719,0.35235 0.853077,0.25963 1.22398,0.25963 -0.704716,0.59344 -1.891606,0.89016 -3.004315,1.24252 0.203997,0.33382 0.426539,0.42654 0.871622,0.51927 -1.168345,0.66762 -2.855954,0.35235 -3.338128,0.68617 0.111271,0.33381 0.445084,0.55635 0.815987,0.72326 -1.891606,0.11127 -7.065704,-0.0742 -8.048597,-4.04285 1.928696,-2.15123 5.470821,-4.6919198 11.535086,-7.8075098 -4.729014,1.61343 -8.975855,3.74613 -12.55507,6.6948098 -4.191205,-1.98434 -1.29816,-6.9915298 0.741807,-8.9758598 0.111271,0.51927 0.222541,0.85308 0.352358,0.9458 0.667625,-0.72326 1.205435,-1.46506 2.077057,-2.16978 0,0.40799 -0.203997,0.85308 0.296722,1.16835 0.463629,-0.63054 1.075619,-1.18689 1.910151,-1.66907 -0.389448,0.70472 -0.07418,0.90871 0.148362,1.20544 0.64908,-0.50072 1.242525,-1.05708 2.41087,-1.48362 z M 25.10731,18.063647 c 3.616305,0 6.639165,2.46651 6.657711,3.91303 0.01854,1.81742 -2.651958,3.67194 -6.602076,3.72758 -0.01854,0 -0.03709,0 -0.05564,0 -0.01854,0 -0.03709,0 -0.05563,0 -3.950118,-0.0556 -6.602076,-1.91016 -6.602076,-3.72758 0.01854,-1.46507 3.041406,-3.91303 6.657711,-3.91303 z m -10.162746,1.18689 c 0.07418,0 0.148362,0 0.222542,0 0.593445,0 1.18689,0.0556 1.79888,0.14836 2.077058,0.35236 -9.9216579,10.81183 -10.1071094,8.47514 -0.1483613,-5.32246 3.4123084,-8.54932 8.0856874,-8.6235 z m 20.102949,0 c 0.07418,0 0.148361,0 0.222542,0 4.673379,0.0742 8.234049,3.30104 8.067142,8.64204 -0.185451,2.33669 -12.165621,-8.14132 -10.107109,-8.47513 0.630535,-0.11127 1.242525,-0.16691 1.817425,-0.16691 z m -18.192798,6.65771 c 0.686171,0 1.390887,0.0927 2.077058,0.33381 3.634851,1.22398 5.470821,5.47083 4.09848,9.49512 -1.372342,4.0243 -5.415186,6.28681 -9.050037,5.06283 -3.63485,-1.22398 -5.4708206,-5.47082 -4.0984792,-9.49512 1.0941642,-3.26395 3.9872082,-5.35955 6.9729782,-5.39664 z m 16.505189,0 c 2.98577,0.0186 5.878814,2.13269 6.991523,5.39664 1.372342,4.0243 -0.463629,8.27114 -4.098479,9.49512 -3.63485,1.22398 -7.696239,-1.05707 -9.050036,-5.06283 -1.372341,-4.02429 0.463629,-8.27114 4.09848,-9.49512 0.667625,-0.22254 1.372341,-0.33381 2.058512,-0.33381 z m -27.1315627,4.48793 c 2.8374087,0.0371 0.723261,13.46378 -1.8359703,12.33253 -2.9115894,-2.33669 -3.85739234,-9.1984 1.5392478,-12.2769 0.074181,-0.0185 0.1483613,-0.0371 0.2225419,-0.0371 0.018545,-0.0185 0.055635,-0.0185 0.074181,-0.0185 z m 37.7764817,0 c 0.01854,0 0.05563,0 0.07418,0 0.07418,0 0.148362,0.0185 0.222542,0.0371 5.39664,3.0785 4.469383,9.9402 1.557793,12.27689 -2.596321,1.1498 -4.691924,-12.27689 -1.854515,-12.31398 z m -18.897513,9.29112 c 1.910151,0 3.690486,0.68617 4.988647,1.87306 1.390886,1.26107 2.188328,3.04141 2.188328,4.82174 0,1.76179 -0.778897,3.50504 -2.132693,4.74756 -1.316706,1.22398 -3.171221,1.94724 -5.044282,1.96579 -1.873061,-0.0186 -3.727576,-0.74181 -5.044282,-1.96579 -1.353796,-1.24252 -2.132694,-2.98577 -2.132694,-4.74756 -0.01854,-1.78033 0.797443,-3.57921 2.188329,-4.82174 1.298161,-1.18689 3.078496,-1.87306 4.988647,-1.87306 z m -16.7091856,3.50504 c 1.8730606,-0.0371 4.1726596,1.44652 6.0457206,3.59776 2.077057,2.50359 3.02286,6.91734 1.298161,8.2155 -1.650519,0.98289 -5.637727,0.5749 -8.475136,-3.48649 -1.910151,-3.41231 -1.669064,-6.8988 -0.3152677,-7.91878 0.4450838,-0.25963 0.9272578,-0.38945 1.4465221,-0.40799 z m 33.2329186,0 c 0.05564,0 0.111271,0 0.185452,0 0.519264,0.0185 1.019983,0.14836 1.446522,0.40799 1.335251,1.01998 1.594883,4.50647 -0.315268,7.91878 -2.837409,4.07993 -6.824617,4.48793 -8.475136,3.48649 -1.743244,-1.29816 -0.797441,-5.71191 1.298161,-8.2155 1.79888,-2.07706 4.024299,-3.54213 5.860269,-3.59776 z M 25.10731,55.209597 c 2.911589,-0.0371 7.23261,1.18689 7.176975,2.74468 0.05564,1.07562 -3.505034,4.1912 -7.102794,4.04284 -0.01855,0 -0.03709,0 -0.05564,0 -0.01855,0 -0.03709,0 -0.05564,0 -3.616306,0.14836 -7.158431,-2.96722 -7.102795,-4.04284 -0.07418,-1.55779 4.246841,-2.78177 7.139885,-2.74468 z"
   inkscape:connector-curvature="0"
   style="stroke-width:0.18545155" />
</svg>