<?xml version="1.0" encoding="UTF-8" standalone="no"?>
<!-- Generator: Adobe Illustrator 24.3.0, SVG Export Plug-In . SVG Version: 6.00 Build 0)  -->

<svg
   version="1.1"
   x="0px"
   y="0px"
   viewBox="0 0 100.42926 128"
   xml:space="preserve"
   id="svg3"
   sodipodi:docname="raspberry-pi.svg"
   width="100.42924"
   height="128"
   inkscape:version="1.2.1 (0f2f062aeb, 2022-09-21, custom)"
   xmlns:inkscape="http://www.inkscape.org/namespaces/inkscape"
   xmlns:sodipodi="http://sodipodi.sourceforge.net/DTD/sodipodi-0.dtd"
   xmlns="http://www.w3.org/2000/svg"
   xmlns:svg="http://www.w3.org/2000/svg"
   xmlns:rdf="http://www.w3.org/1999/02/22-rdf-syntax-ns#"
   xmlns:cc="http://creativecommons.org/ns#"
   xmlns:dc="http://purl.org/dc/elements/1.1/"><metadata
   id="metadata9"><rdf:RDF><cc:Work
       rdf:about=""><dc:format>image/svg+xml</dc:format><dc:type
         rdf:resource="http://purl.org/dc/dcmitype/StillImage" /></cc:Work></rdf:RDF></metadata><defs
   id="defs7" /><sodipodi:namedview
   pagecolor="#ffffff"
   bordercolor="#666666"
   borderopacity="1"
   objecttolerance="10"
   gridtolerance="10"
   guidetolerance="10"
   inkscape:pageopacity="0"
   inkscape:pageshadow="2"
   inkscape:window-width="1600"
   inkscape:window-height="836"
   id="namedview5"
   showgrid="false"
   fit-margin-top="0"
   fit-margin-left="0"
   fit-margin-right="0"
   fit-margin-bottom="0"
   inkscape:zoom="5.2149125"
   inkscape:cx="55.226238"
   inkscape:cy="34.228762"
   inkscape:window-x="0"
   inkscape:window-y="27"
   inkscape:window-maximized="1"
   inkscape:current-layer="svg3"
   inkscape:showpageshadow="2"
   inkscape:pagecheckerboard="0"
   inkscape:deskcolor="#d1d1d1" />
		<path
   fill="#c52049"
   id="path5175-4"
   d="m 27.144447,0.03843434 c -0.630536,0.037 -1.335252,0.25962001 -2.114148,0.89016004 -1.928696,-0.74180003 -3.820302,-1.00144004 -5.489366,0.51926002 -2.596322,-0.33382 -3.412309,0.3709 -4.079934,1.1869001 -0.556355,0 -4.265386,-0.59346 -5.9715408,1.9286801 -4.2282956,-0.55634 -5.5635466,2.4479601 -4.042844,5.2668403 -0.853077,1.3352401 -1.780335,2.6705001 0.2596323,5.2297201 -0.7047159,1.40944 -0.2596323,2.96724 1.4094318,4.85884 -0.4450838,2.00288 0.4450836,3.4123 2.0028769,4.52502 -0.2967226,2.74468 2.5221408,4.33956 3.3381278,4.89592 0.333813,1.59488 1.001439,3.115581 4.191205,3.931561 0.519265,2.37378 2.447961,2.78178 4.339567,3.30104 -6.194082,3.59776 -11.4979968,8.30824 -11.4609064,19.917501 l -0.8901676,1.63198 c -7.0842496,4.30248 -13.463783,18.174241 -3.4864892,29.412621 0.6676257,3.52358 1.7432447,6.04572 2.7075928,8.864581 1.446522,11.275461 10.9416414,16.579361 13.4637844,17.209901 3.67194,2.78178 7.566422,5.45228 12.870337,7.3068 C 39.16171,126.0713 44.576894,128 50.214622,128 c 5.637729,0 11.052913,-1.96578 16.023015,-7.08424 5.303914,-1.85452 9.198397,-4.48794 12.870339,-7.3068 2.48505,-0.63054 11.98017,-5.93444 13.463782,-17.209901 0.964348,-2.818861 2.077058,-5.341001 2.707592,-8.864581 9.97729,-11.23838 3.597761,-25.110141 -3.486488,-29.412621 l -0.890168,-1.63198 C 90.939774,44.880616 85.63587,40.170136 79.441788,36.572376 c 1.854516,-0.48216 3.783212,-0.92726 4.339566,-3.30104 3.226858,-0.85306 3.894482,-2.336681 4.191206,-3.931561 0.853076,-0.55636 3.63485,-2.15124 3.338128,-4.89592 1.557792,-1.11272 2.44796,-2.52214 2.002876,-4.52502 1.706154,-1.8916 2.151238,-3.41232 1.409432,-4.85884 2.039967,-2.55922 1.11271,-3.89448 0.259632,-5.2297201 C 96.503331,7.0113947 95.168088,4.0070946 90.902694,4.5263546 89.19654,2.0042145 85.524598,2.5605745 84.931154,2.5976545 84.300618,1.7816744 83.447542,1.0769544 80.85122,1.4107744 79.182156,-0.10994567 77.29055,0.14969435 75.361854,0.89149438 74.582957,0.26097435 73.878241,0.03843434 73.247705,0.00133434 c -1.22398,-0.037 -2.299598,0.70472003 -3.412308,1.07562006 -2.781774,-0.92726005 -3.412308,0.33382 -4.78465,0.85308 -3.041406,-0.63054 -3.968664,0.7789001 -5.415186,2.2254202 l -1.706154,-0.037 c -4.562109,2.7076001 -6.824617,8.1969604 -7.751875,8.1969604 -0.890168,0 -3.152676,-5.4893603 -7.751876,-8.1969604 l -1.706154,0.037 C 39.27298,2.6718345 38.345722,1.2624144 35.304316,1.9300344 33.931974,1.4107744 33.30144,0.18679435 30.519665,1.0769544 29.444045,0.74313437 28.368427,0.00133434 27.144447,0.03843434 Z m 0.18546,3.22684026 c 2.336688,0.85308 3.523578,1.9658 4.78465,3.0785001 0.445083,-0.59344 1.075619,-1.00144 0.296723,-2.4108601 1.669064,0.96434 2.893044,2.0770601 3.820302,3.3381201 1.03853,-0.66762 0.593444,-1.5207 0.593444,-2.3366801 1.706156,1.4094201 2.818866,2.8930402 4.154116,4.3395602 0.259632,-0.1854 0.482174,-0.85308 0.704716,-1.8916001 4.079934,3.9686603 9.866024,13.9830403 1.483614,17.9517003 -7.158432,-5.93444 -15.689205,-10.23692 -25.110144,-13.42668 12.128533,6.26826 19.212784,11.31254 23.070176,15.61502 -1.965786,7.937321 -12.313985,8.308221 -16.097197,8.085681 0.778896,-0.3709 1.409432,-0.81598 1.631974,-1.44652 -0.964348,-0.66762 -4.302476,-0.0742 -6.676256,-1.37234 0.890168,-0.1854 1.335252,-0.3709 1.743244,-1.038541 -2.225419,-0.70472 -4.599199,-1.33524 -6.00863,-2.48504 0.741806,0 1.446522,0.1854 2.44796,-0.51926 -2.002877,-1.07562 -4.117024,-1.9287 -5.748998,-3.56068 1.038529,-0.037 2.114148,0 2.44796,-0.408 -1.817425,-1.1127 -3.338128,-2.37378 -4.636289,-3.74612 1.446523,0.1854 2.039968,0.0372 2.37378,-0.22254 -1.372341,-1.40942 -3.1155858,-2.59632 -3.9315726,-4.33956 1.075619,0.3709 2.0399666,0.48218 2.7446836,-0.0372 -0.407994,-1.03852 -2.4108708,-1.66906 -3.5606704,-4.11702 1.1127092,0.1112 2.3366894,0.25964 2.5592314,0 -0.5192643,-2.11414 -1.4094318,-3.3381202 -2.2995992,-4.5621002 2.4108702,-0.0372 6.0457202,0 5.8973592,-0.1854 L 12.530872,6.0470147 c 2.336689,-0.63054 4.74756,0.1112 6.490804,0.66762 0.778897,-0.63052 -0.03709,-1.4094201 -0.964348,-2.1883201 2.002877,0.25964 3.820303,0.7418 5.452277,1.3723401 0.853076,-0.7789001 -0.556356,-1.5578001 -1.261072,-2.3366801 3.078496,0.59344 4.413748,1.40942 5.711908,2.2254001 0.890168,-0.9643401 0,-1.7432401 -0.630534,-2.5221401 z m 45.806536,0 c -0.630536,0.7789 -1.520704,1.5578 -0.593446,2.4479601 1.298162,-0.8159801 2.596323,-1.6319601 5.711909,-2.2254201 -0.704716,0.7789 -2.151238,1.5578 -1.26107,2.3367001 1.631974,-0.6305401 3.449398,-1.0756201 5.452276,-1.3723401 -0.964348,0.81598 -1.743246,1.5948801 -0.964348,2.1883201 1.743244,-0.55634 4.154114,-1.29816 6.490804,-0.66762 l -1.483612,1.5207001 c -0.14836,0.1854 3.486488,0.1484 5.897358,0.1854 -0.890168,1.22398 -1.780334,2.4479602 -2.299598,4.5621002 0.22254,0.25964 1.446522,0.1112 2.55923,0 -1.1498,2.44796 -3.152676,3.0785 -3.63485,4.11702 0.704716,0.55636 1.669064,0.408 2.744684,0.0372 -0.815988,1.74324 -2.559232,2.93014 -3.931574,4.33956 0.333812,0.25964 0.964348,0.408 2.37378,0.22254 -1.26107,1.37234 -2.818864,2.63342 -4.636288,3.74612 0.333812,0.37092 1.409432,0.37092 2.44796,0.408 -1.631974,1.63198 -3.746122,2.48506 -5.748998,3.56068 1.001438,0.7047 1.706154,0.51926 2.44796,0.51926 -1.409432,1.18688 -3.783212,1.78032 -6.00863,2.48504 0.407994,0.667641 0.853078,0.853081 1.743244,1.038541 -2.33669,1.33524 -5.711909,0.7047 -6.676257,1.37234 0.222542,0.66762 0.890168,1.1127 1.631975,1.44652 -3.783213,0.22254 -14.131409,-0.1484 -16.097195,-8.085701 3.857392,-4.30246 10.941642,-9.38384 23.070173,-15.61502 -9.458029,3.22686 -17.951711,7.49226 -25.110141,13.38962 -8.382411,-3.96868 -2.59632,-13.98306 1.483614,-17.9517203 0.222542,1.0385401 0.445082,1.7061601 0.704716,1.8916001 1.33525,-1.44652 2.41087,-2.9301201 4.154114,-4.3395602 0,0.8159801 -0.407994,1.7061601 0.593444,2.3367001 0.927258,-1.26108 2.151238,-2.3737801 3.820302,-3.3381401 -0.778896,1.40944 -0.14836,1.8174201 0.296724,2.4108801 1.29816,-1.0014401 2.48505,-2.1141601 4.82174,-2.9672401 z M 50.214622,36.127296 c 7.232611,0 13.278331,4.93302 13.315423,7.82606 0.03708,3.63484 -5.303916,7.34388 -13.204153,7.45516 -0.03708,0 -0.07418,0 -0.11128,0 -0.03708,0 -0.07418,0 -0.11126,0 -7.900236,-0.1112 -13.204152,-3.82032 -13.204152,-7.45516 0.03708,-2.93014 6.082812,-7.82606 13.315422,-7.82606 z m -20.325493,2.37378 c 0.14836,0 0.296724,0 0.445084,0 1.18689,0 2.373781,0.1112 3.597761,0.29672 4.154116,0.70472 -19.843317,21.623661 -20.21422,16.950281 -0.296723,-10.644921 6.824617,-17.098641 16.171375,-17.247001 z m 40.2059,0 c 0.14836,0 0.296722,0 0.445084,0 9.346759,0.1484 16.468099,6.60208 16.134285,17.284081 -0.370902,4.67338 -24.331243,-16.282641 -20.214219,-16.950261 1.26107,-0.22254 2.48505,-0.33382 3.63485,-0.33382 z m -36.385597,13.31542 c 1.372342,0 2.781774,0.1854 4.154116,0.66762 7.269702,2.447961 10.941642,10.941661 8.19696,18.990241 -2.744684,8.048601 -10.830372,12.573621 -18.100075,10.125661 -7.2697,-2.44796 -10.941641,-10.941641 -8.196958,-18.990241 2.188328,-6.5279 7.974416,-10.719101 13.945957,-10.793281 z m 33.010379,0 c 5.97154,0.0372 11.757629,4.265381 13.983047,10.793281 2.744684,8.0486 -0.927258,16.542281 -8.196959,18.990241 -7.2697,2.44796 -15.392478,-2.11414 -18.100072,-10.125661 -2.744683,-8.04858 0.927258,-16.54228 8.19696,-18.990241 1.33525,-0.44508 2.744682,-0.66762 4.117024,-0.66762 z m -54.263128,8.975861 c 5.674818,0.0742 1.446522,26.927561 -3.6719406,24.665061 -5.8231791,-4.67338 -7.714785,-18.396801 3.0784956,-24.553801 0.148362,-0.037 0.296723,-0.0742 0.445084,-0.0742 0.03709,-0.037 0.11127,-0.037 0.148362,-0.037 z m 75.552967,0 c 0.03708,0 0.11126,0 0.14836,0 0.14836,0 0.296724,0.037 0.445084,0.0742 10.793281,6.157 8.938767,19.880401 3.115586,24.553781 -5.192642,2.2996 -9.383848,-24.553781 -3.70903,-24.627961 z M 50.214622,79.374598 c 3.820303,0 7.380973,1.37234 9.977295,3.74612 2.781772,2.52214 4.376656,6.08282 4.376656,9.64348 0,3.523581 -1.557794,7.010081 -4.265386,9.495122 -2.633412,2.44796 -6.342442,3.89448 -10.088565,3.93158 -3.746122,-0.0372 -7.455152,-1.48362 -10.088564,-3.93158 -2.707592,-2.485041 -4.265388,-5.971541 -4.265388,-9.495122 -0.03708,-3.56066 1.594886,-7.15842 4.376658,-9.64348 2.596322,-2.37378 6.156992,-3.74612 9.977294,-3.74612 z m -33.418372,7.01008 c 3.746121,-0.0742 8.345319,2.89304 12.091441,7.19552 4.154115,5.007181 6.045721,13.834682 2.596322,16.431002 -3.301038,1.96578 -11.275454,1.1498 -16.950272,-6.97298 -3.820303,-6.824621 -3.338128,-13.797602 -0.630536,-15.837562 0.890168,-0.51926 1.854516,-0.7789 2.893045,-0.81598 z m 66.46584,0 c 0.11128,0 0.222542,0 0.370904,0 1.038528,0.037 2.039966,0.29672 2.893044,0.81598 2.670502,2.03996 3.189766,9.012941 -0.630536,15.837562 -5.674818,8.15986 -13.649235,8.97586 -16.950273,6.97298 -3.486488,-2.59632 -1.594882,-11.423821 2.596322,-16.431002 3.597761,-4.15412 8.048599,-7.08426 11.720539,-7.19552 z M 50.214622,110.4192 c 5.823179,-0.0742 14.465221,2.37378 14.353951,5.48936 0.11128,2.15124 -7.010068,8.3824 -14.205589,8.08568 -0.0371,0 -0.07418,0 -0.11128,0 -0.0371,0 -0.07418,0 -0.11128,0 -7.232612,0.29672 -14.316862,-5.93444 -14.20559,-8.08568 -0.14836,-3.11558 8.493682,-5.56354 14.27977,-5.48936 z"
   inkscape:connector-curvature="0"
   style="stroke-width:0.370904" />
</svg>
