<?xml version="1.0" encoding="UTF-8" standalone="no"?>
<svg
   xmlns:dc="http://purl.org/dc/elements/1.1/"
   xmlns:cc="http://creativecommons.org/ns#"
   xmlns:rdf="http://www.w3.org/1999/02/22-rdf-syntax-ns#"
   xmlns:svg="http://www.w3.org/2000/svg"
   xmlns="http://www.w3.org/2000/svg"
   xmlns:sodipodi="http://sodipodi.sourceforge.net/DTD/sodipodi-0.dtd"
   xmlns:inkscape="http://www.inkscape.org/namespaces/inkscape"
   height="663"
   width="662.90002"
   version="1.1"
   id="svg3725"
   sodipodi:docname="cancel.svg"
   inkscape:version="0.92.3 (2405546, 2018-03-11)">
  <metadata
     id="metadata3731">
    <rdf:RDF>
      <cc:Work
         rdf:about="">
        <dc:format>image/svg+xml</dc:format>
        <dc:type
           rdf:resource="http://purl.org/dc/dcmitype/StillImage" />
      </cc:Work>
    </rdf:RDF>
  </metadata>
  <defs
     id="defs3729" />
  <sodipodi:namedview
     pagecolor="#ffffff"
     bordercolor="#666666"
     borderopacity="1"
     objecttolerance="10"
     gridtolerance="10"
     guidetolerance="10"
     inkscape:pageopacity="0"
     inkscape:pageshadow="2"
     inkscape:window-width="1600"
     inkscape:window-height="877"
     id="namedview3727"
     showgrid="false"
     inkscape:zoom="0.71"
     inkscape:cx="339.90071"
     inkscape:cy="367.2"
     inkscape:window-x="-8"
     inkscape:window-y="-8"
     inkscape:window-maximized="1"
     inkscape:current-layer="svg3725" />
  <path
     d="m 662.9,533.5 q 0,22.3 -15.6,38 l -75.9,75.9 q -15.6,15.6 -37.9,15.6 -22.3,0 -38,-15.6 L 331.5,483.3 167.4,647.4 Q 151.8,663 129.4,663 107,663 91.5,647.4 L 15.6,571.5 Q 0,555.8 0,533.5 0,511.2 15.6,495.6 L 179.7,331.5 15.6,167.5 Q 0,151.8 0,129.5 0,107.2 15.6,91.6 L 91.5,15.7 Q 107.1,0 129.4,0 q 22.3,0 38,15.7 l 164.1,164 164,-164 Q 511.1,0 533.5,0 q 22.4,0 37.9,15.7 l 75.9,75.9 q 15.6,15.6 15.6,37.9 0,22.3 -15.6,38 l -164.1,164 164.1,164.1 q 15.6,15.6 15.6,37.9 z"
     id="path3723"
     inkscape:connector-curvature="0"
     style="fill:#aa0000" />
</svg>
