<?xml version="1.0" encoding="utf-8"?>
<!-- Generator: Adobe Illustrator 21.0.2, SVG Export Plug-In . SVG Version: 6.00 Build 0)  -->
<svg version="1.1" id="Layer_1" xmlns="http://www.w3.org/2000/svg" xmlns:xlink="http://www.w3.org/1999/xlink" x="0px" y="0px"
	 viewBox="0 0 108 108" style="enable-background:new 0 0 108 108;" xml:space="preserve">
<style type="text/css">
	.st0{fill:#F2F2F2;}
</style>
<circle class="st0" cx="54" cy="54" r="51"/>
<g>
	<path d="M105.6,54h-2.4c0,13.6-5.5,25.9-14.4,34.8c-8.9,8.9-21.2,14.4-34.8,14.4c-13.6,0-25.9-5.5-34.8-14.4
		C10.4,79.9,4.9,67.6,4.9,54c0-13.6,5.5-25.8,14.4-34.8C28.2,10.4,40.4,4.9,54,4.9c13.6,0,25.8,5.5,34.8,14.4
		c8.9,8.9,14.4,21.2,14.4,34.8H105.6h2.4c0-29.8-24.2-54-54-54C24.2,0,0,24.2,0,54c0,29.8,24.2,54,54,54c29.8,0,54-24.2,54-54H105.6
		L105.6,54z"/>
	<path d="M77.8,44.5h-6.6l-5.9-16.3c-0.7-1.9-2.8-2.9-4.7-2.2L19.7,40.9c-1.9,0.7-2.9,2.8-2.2,4.7L25,66l1.8,4.9
		c0.7,1.9,2.8,2.9,4.7,2.2l1-0.4v2c0,3,2.4,5.4,5.4,5.4h40c3,0,5.4-2.4,5.4-5.4V49.9C83.3,46.9,80.8,44.5,77.8,44.5L77.8,44.5z
		 M51.8,34.1l5.5-2c1.5-0.6,3.2,0.2,3.8,1.8l0.5,1.4c0.6,1.5-0.2,3.2-1.8,3.8l-5.5,2c-1.5,0.6-3.2-0.2-3.8-1.8L50,37.9
		C49.5,36.4,50.3,34.7,51.8,34.1L51.8,34.1z M79.1,74.6c0,0.7-0.6,1.3-1.3,1.3h-40c-0.7,0-1.3-0.6-1.3-1.3V60.2h42.5V74.6L79.1,74.6
		z M79.1,53.8H36.6v-3.9c0-0.7,0.6-1.3,1.3-1.3h40c0.7,0,1.3,0.6,1.3,1.3V53.8L79.1,53.8z"/>
</g>
</svg>
