<?xml version="1.0" ?><!DOCTYPE svg  PUBLIC '-//W3C//DTD SVG 1.1//EN'  'http://www.w3.org/Graphics/SVG/1.1/DTD/svg11.dtd'><svg height="64px" style="shape-rendering:geometricPrecision; text-rendering:geometricPrecision; image-rendering:optimizeQuality; fill-rule:evenodd; clip-rule:evenodd" version="1.1" viewBox="0 0 64 64" width="64px" xml:space="preserve" xmlns="http://www.w3.org/2000/svg" xmlns:xlink="http://www.w3.org/1999/xlink"><defs><style type="text/css">
   <![CDATA[
    .fil1 {fill:#1AB5ED}
    .fil0 {fill:#FFC106}
    .fil2 {fill:#FFC106;fill-rule:nonzero}
   ]]>
  </style></defs><g id="Layer_x0020_1"><g id="_743750784"><path class="fil0" d="M41.27 18.66c6.89,1.84 10.98,8.92 9.13,15.81 -0.65,2.43 -1.95,4.51 -3.66,6.11 -1.51,-2.79 -4.45,-4.68 -7.84,-4.68 -0.55,0 -1.09,0.04 -1.61,0.14 -1.82,-4.8 -6.39,-8.25 -11.79,-8.42 1.92,-6.79 8.94,-10.79 15.77,-8.96z"/><path class="fil1" d="M12.29 53.71l-0.1 0c-3.85,0 -6.97,-3.11 -6.97,-6.96 0,-3.81 3.05,-6.9 6.85,-6.97 0.45,-6.8 6.1,-12.17 13.02,-12.17 5.58,0 10.34,3.5 12.2,8.43 0.52,-0.1 1.06,-0.14 1.61,-0.14 4.52,0 8.27,3.38 8.83,7.75 2.78,0 5.03,2.26 5.03,5.03 0,2.74 -2.19,4.97 -4.91,5.03l-0.12 0 -0.07 0 -8.67 0 -0.09 0 -0.12 0 -13.56 0 -0.13 0 -0.14 0 -12.66 0z"/><path class="fil2" d="M55.52 39.85c0.6,0.34 0.8,1.11 0.46,1.7 -0.34,0.6 -1.1,0.8 -1.7,0.46l-1.73 -1c-0.59,-0.34 -0.8,-1.1 -0.46,-1.7 0.35,-0.59 1.11,-0.8 1.7,-0.46l1.73 1zm-35.18 -17.44c-0.6,-0.34 -0.8,-1.1 -0.46,-1.7 0.34,-0.59 1.1,-0.8 1.7,-0.46l1.73 1c0.59,0.34 0.8,1.1 0.45,1.7 -0.34,0.6 -1.1,0.8 -1.69,0.46l-1.73 -1zm6.71 -7.63c-0.34,-0.6 -0.13,-1.36 0.46,-1.7 0.6,-0.34 1.36,-0.14 1.7,0.46l1 1.73c0.34,0.59 0.13,1.36 -0.46,1.7 -0.6,0.34 -1.36,0.13 -1.7,-0.46l-1 -1.73zm9.63 -3.25c0,-0.69 0.56,-1.25 1.25,-1.25 0.69,0 1.25,0.56 1.25,1.25l0 2c0,0.69 -0.56,1.25 -1.25,1.25 -0.69,0 -1.25,-0.56 -1.25,-1.25l0 -2zm9.97 2c0.35,-0.59 1.11,-0.79 1.7,-0.45 0.6,0.35 0.8,1.11 0.46,1.7l-1 1.73c-0.35,0.6 -1.11,0.8 -1.71,0.46 -0.59,-0.35 -0.79,-1.11 -0.45,-1.71l1 -1.73zm7.63 6.72c0.6,-0.34 1.36,-0.13 1.7,0.46 0.34,0.6 0.14,1.36 -0.46,1.7l-1.73 1c-0.59,0.34 -1.35,0.14 -1.7,-0.46 -0.34,-0.6 -0.13,-1.36 0.46,-1.7l1.73 -1zm3.25 9.63c0.69,0 1.25,0.56 1.25,1.25 0,0.69 -0.56,1.25 -1.25,1.25l-2 0c-0.69,0 -1.25,-0.56 -1.25,-1.25 0,-0.69 0.56,-1.25 1.25,-1.25l2 0z"/></g></g></svg>