<?xml version="1.0" ?><!DOCTYPE svg  PUBLIC '-//W3C//DTD SVG 1.1//EN'  'http://www.w3.org/Graphics/SVG/1.1/DTD/svg11.dtd'><svg height="64px" style="shape-rendering:geometricPrecision; text-rendering:geometricPrecision; image-rendering:optimizeQuality; fill-rule:evenodd; clip-rule:evenodd" version="1.1" viewBox="0 0 64 64" width="64px" xml:space="preserve" xmlns="http://www.w3.org/2000/svg" xmlns:xlink="http://www.w3.org/1999/xlink"><defs><style type="text/css">
   <![CDATA[
    .fil1 {fill:#0E6096}
    .fil2 {fill:#1AB5ED}
    .fil0 {fill:#0E6096;fill-rule:nonzero}
   ]]>
  </style></defs><g id="Layer_x0020_1"><g id="_740098240"><path class="fil0" d="M22.3 46.27c0.24,-0.64 0.96,-0.96 1.6,-0.72 0.65,0.24 0.97,0.96 0.73,1.6l-1.52 4.05c-0.24,0.64 -0.96,0.97 -1.61,0.72 -0.64,-0.24 -0.97,-0.96 -0.73,-1.6l1.53 -4.05zm9.91 0.01c0.24,-0.64 0.96,-0.97 1.6,-0.73 0.64,0.24 0.97,0.96 0.73,1.6l-2.79 7.52c-0.24,0.64 -0.96,0.97 -1.6,0.73 -0.65,-0.24 -0.97,-0.96 -0.73,-1.6l2.79 -7.52zm8.64 -0.01c0.24,-0.64 0.96,-0.96 1.61,-0.72 0.64,0.24 0.96,0.96 0.72,1.6l-1.52 4.05c-0.24,0.64 -0.96,0.97 -1.61,0.72 -0.64,-0.24 -0.97,-0.96 -0.72,-1.6l1.52 -4.05z"/><path class="fil1" d="M10.36 42.01c-0.19,-0.05 -0.39,-0.1 -0.58,-0.16 0.19,0.06 0.39,0.11 0.58,0.16zm-0.96 -0.29c-0.38,-0.14 -0.74,-0.3 -1.09,-0.49 0.35,0.19 0.71,0.35 1.09,0.49zm-1.09 -0.49c-1.39,-0.76 -2.54,-1.91 -3.3,-3.3 0.76,1.39 1.91,2.54 3.3,3.3zm-3.3 -3.3c-0.19,-0.35 -0.36,-0.72 -0.49,-1.09 0.13,0.37 0.3,0.74 0.49,1.09zm-0.62 -1.47c-0.06,-0.19 -0.11,-0.39 -0.16,-0.59 0.05,0.2 0.1,0.4 0.16,0.59zm7.68 -10.64c0.1,-1.5 0.41,-2.93 0.91,-4.28 -0.49,1.35 -0.81,2.78 -0.91,4.28l0 0zm19.25 -13.83c1.4,-2.09 3.79,-3.47 6.51,-3.47 3.96,0 7.23,2.94 7.75,6.77 0.48,-0.07 0.96,-0.1 1.45,-0.1 6.05,0 10.95,4.9 10.95,10.95 0,1.77 -0.42,3.44 -1.16,4.91 -0.82,-0.43 -1.76,-0.68 -2.76,-0.68 -0.66,-5.15 -5.07,-9.13 -10.4,-9.13 -0.64,0 -1.27,0.06 -1.89,0.17 -1.74,-4.6 -5.63,-8.15 -10.45,-9.42z"/><path class="fil2" d="M12.22 42.22c-4.53,0 -8.2,-3.67 -8.2,-8.2 0,-4.48 3.59,-8.12 8.05,-8.2 0.54,-8.01 7.2,-14.33 15.33,-14.33 6.57,0 12.18,4.12 14.37,9.92 0.62,-0.11 1.25,-0.17 1.89,-0.17 5.33,0 9.74,3.98 10.4,9.13 3.27,0 5.92,2.66 5.92,5.92 0,3.23 -2.57,5.85 -5.77,5.93 -14,0.19 -28,0 -41.99,0z"/></g></g></svg>