<svg height="1000" width="1000" xmlns="http://www.w3.org/2000/svg"><path d="M1000 396.2v443.1q0 36.8 -26.2 63t-63.1 26.3H89.3q-36.8 0 -63.1 -26.3T0 839.3V396.2q24.6 27.3 56.4 48.6 202 137.2 277.3 192.5 31.8 23.4 51.6 36.5t52.8 26.8 61.3 13.7h1.2q28.4 0 61.3 -13.7t52.8 -26.8 51.6 -36.5q94.9 -68.7 277.9 -192.5Q976 423 1000 396.2zm0 -164.1q0 44.1 -27.3 84.3T904.6 385Q694.8 530.7 643.4 566.4q-5.6 3.9 -23.7 17t-30.1 21.2 -29.1 18.2 -32 15 -27.9 5.1h-1.2q-12.8 0 -27.9 -5.1t-32 -15 -29.1 -18.2 -30.1 -21.2 -23.7 -17Q305.8 530.7 210.4 464.6T96 385Q61.4 361.6 30.7 320.6T0 244.4q0 -43.5 23.2 -72.5t66.1 -29h821.4q36.3 0 62.8 26.2t26.5 63z"/></svg>