<?xml version="1.0" encoding="UTF-8" standalone="no"?>
<!-- Generator: Adobe Illustrator 16.0.0, SVG Export Plug-In . SVG Version: 6.00 Build 0)  -->

<svg
   xmlns:dc="http://purl.org/dc/elements/1.1/"
   xmlns:cc="http://creativecommons.org/ns#"
   xmlns:rdf="http://www.w3.org/1999/02/22-rdf-syntax-ns#"
   xmlns:svg="http://www.w3.org/2000/svg"
   xmlns="http://www.w3.org/2000/svg"
   xmlns:sodipodi="http://sodipodi.sourceforge.net/DTD/sodipodi-0.dtd"
   xmlns:inkscape="http://www.inkscape.org/namespaces/inkscape"
   version="1.1"
   id="Layer_1"
   x="0px"
   y="0px"
   width="512px"
   height="512px"
   viewBox="0 0 512 512"
   enable-background="new 0 0 512 512"
   xml:space="preserve"
   sodipodi:docname="pen.svg"
   inkscape:version="0.92.3 (2405546, 2018-03-11)"><metadata
   id="metadata3928"><rdf:RDF><cc:Work
       rdf:about=""><dc:format>image/svg+xml</dc:format><dc:type
         rdf:resource="http://purl.org/dc/dcmitype/StillImage" /></cc:Work></rdf:RDF></metadata><defs
   id="defs3926" /><sodipodi:namedview
   pagecolor="#ffffff"
   bordercolor="#666666"
   borderopacity="1"
   objecttolerance="10"
   gridtolerance="10"
   guidetolerance="10"
   inkscape:pageopacity="0"
   inkscape:pageshadow="2"
   inkscape:window-width="689"
   inkscape:window-height="480"
   id="namedview3924"
   showgrid="false"
   inkscape:zoom="0.4609375"
   inkscape:cx="262.50847"
   inkscape:cy="256"
   inkscape:window-x="0"
   inkscape:window-y="0"
   inkscape:window-maximized="0"
   inkscape:current-layer="Layer_1" />
<path
   d="m 102.81175,363.906 c -11.438,-0.531 -22.75,-5.063 -31.438,-13.75 -18.75,-18.75 -18.5,-48.906 0.188,-67.656 l 260.219,-260.203 c 0,0 3.5,-3.984 5.406,-5.891 21.875,-21.875 57.344,-21.875 79.219,0 l 79.188,79.188 c 21.875,21.875 21.875,57.359 0,79.203 -1.906,1.938 -3.813,3.781 -5.906,5.375 l -260.25,260.203 c -18.688,18.719 -48.875,18.969 -67.563,0.313 -8.75,-8.75 -13.25,-20 -13.813,-31.531 -11.5,-0.563 -22.75,-5.063 -31.438,-13.719 -8.749,-8.782 -13.249,-20.001 -13.812,-31.532 z m 104.313,54.156 214.937,-214.968 -22.625,-22.641 -214.937,214.953 c -6.25,6.25 -6.25,16.375 0,22.656 6.25,6.25 16.375,6.219 22.625,0 z m -45.25,-45.281 214.937,-214.953 -22.625,-22.641 -214.937,214.969 c -6.25,6.188 -6.25,16.375 0,22.656 6.25,6.219 16.375,6.157 22.625,-0.031 z m -45.25,-45.25 214.937,-214.969 -22.625,-22.625 -214.938,215 c -6.313,6.188 -6.25,16.344 0,22.594 6.25,6.25 16.313,6.219 22.626,0 z m 45.562,151.531 c -8.375,-3.875 -16.219,-9.031 -22.938,-15.75 -7.875,-7.875 -13.906,-17.219 -17.875,-27.469 -10.188,-3.938 -19.531,-9.969 -27.406,-17.813 -7.844,-7.875 -13.875,-17.219 -17.813,-27.438 -10.219,-3.938 -19.563,-9.969 -27.406,-17.813 -6.875,-6.875 -11.969,-14.781 -15.781,-23.156 L -2.5e-4,512 Z"
   id="path3921"
   inkscape:connector-curvature="0" />
</svg>