<?xml version="1.0" encoding="UTF-8" standalone="no"?>
<svg
        version="1.1"
        xmlns="http://www.w3.org/2000/svg"
        viewBox="0 -135 1540 1540">
  <g>
    <path d="m 1376,640 138,-135 q 30,-28 20,-70 -12,-41 -52,-51 l -188,-48 53,-186 q 12,-41 -19,-70 -29,-31 -70,-19 l -186,53 -48,-188 q -10,-40 -51,-52 -12,-2 -19,-2 -31,0 -51,22 L 768,32 633,-106 q -28,-30 -70,-20 -41,11 -51,52 L 464,114 278,61 q -41,-12 -70,19 -31,29 -19,70 L 242,336 54,384 Q 14,394 2,435 -8,477 22,505 L 160,640 22,775 q -30,28 -20,70 12,41 52,51 l 188,48 -53,186 q -12,41 19,70 29,31 70,19 l 186,-53 48,188 q 10,41 51,51 41,12 70,-19 l 135,-139 135,139 q 29,30 70,19 41,-10 51,-51 l 48,-188 186,53 q 41,12 70,-19 31,-29 19,-70 l -53,-186 188,-48 q 40,-10 52,-51 10,-42 -20,-70 z" />
  </g>
</svg>
