<?xml version="1.0" encoding="utf-8"?>
<svg
        version="1.1"
        xmlns="http://www.w3.org/2000/svg"
        x="0px" y="0px"
        viewBox="0 0 1000 1000"
        enable-background="new 0 0 1000 1000"
        xml:space="preserve">
<g>
    <path d="M943.2,10H568.4c-25.8,0-61.7,14.9-80,33.1L23.7,507.9c-18.2,18.2-18.2,48,0,66.2l402.2,402.2c18.2,18.2,48,18.2,66.2,0l464.7-464.7c18.2-18.2,33.1-54.2,33.1-80V56.8C990,31.1,968.9,10,943.2,10z M708.9,384.8c-51.8,0-93.7-41.9-93.7-93.7c0-51.8,41.9-93.7,93.7-93.7c51.8,0,93.7,41.9,93.7,93.7C802.6,342.8,760.7,384.8,708.9,384.8z"/>
</g>
</svg>