<?xml version="1.0" encoding="utf-8"?>
<!-- Generator: Adobe Illustrator 17.0.0, SVG Export Plug-In . SVG Version: 6.00 Build 0)  -->
<!DOCTYPE svg PUBLIC "-//W3C//DTD SVG 1.1//EN" "http://www.w3.org/Graphics/SVG/1.1/DTD/svg11.dtd">
<svg version="1.1" id="Layer_1" xmlns="http://www.w3.org/2000/svg" xmlns:xlink="http://www.w3.org/1999/xlink" x="0px" y="0px"
	 width="512px" height="512px" viewBox="0 0 512 512" enable-background="new 0 0 512 512" xml:space="preserve">
<path id="help-4-icon" fill="#0076B8" d="M256,50C142.229,50,50,142.229,50,256s92.229,206,206,206s206-92.229,206-206
	S369.771,50,256,50z M256,435.863c-99.397,0-179.863-80.577-179.863-179.864c0-99.396,80.574-179.863,179.863-179.863
	c99.396,0,179.862,80.575,179.862,179.863C435.863,355.396,355.286,435.863,256,435.863z M256,96.226
	c-88.241,0-159.774,71.533-159.774,159.774S167.759,415.774,256,415.774c88.24,0,159.773-71.533,159.773-159.774
	S344.24,96.226,256,96.226z M257.901,372.18c-13.66,0-24.738-11.078-24.738-24.742c0-13.66,11.078-24.735,24.738-24.735
	c13.665,0,24.74,11.075,24.74,24.735C282.642,361.102,271.566,372.18,257.901,372.18z M277.353,299.053v4.45c0,0-37.092,0-40.783,0
	v-4.45c0-12.594,1.84-28.748,16.459-42.793c14.622-14.047,32.895-25.65,32.895-43.198c0-19.399-13.464-29.659-30.438-29.659
	c-28.283,0-30.133,29.335-30.829,35.793h-39.664c1.056-30.589,13.983-73.373,70.731-73.373c49.178,0,71.289,32.936,71.289,63.822
	C327.011,258.807,277.353,267.346,277.353,299.053z"/>
</svg>
