<?xml version="1.0" ?><!DOCTYPE svg  PUBLIC '-//W3C//DTD SVG 1.1//EN'  'http://www.w3.org/Graphics/SVG/1.1/DTD/svg11.dtd'><svg height="64px" style="shape-rendering:geometricPrecision; text-rendering:geometricPrecision; image-rendering:optimizeQuality; fill-rule:evenodd; clip-rule:evenodd" version="1.1" viewBox="0 0 64 64" width="64px" xml:space="preserve" xmlns="http://www.w3.org/2000/svg" xmlns:xlink="http://www.w3.org/1999/xlink"><defs><style type="text/css">
   <![CDATA[
    .fil1 {fill:#0E6096}
    .fil2 {fill:#1AB5ED}
    .fil0 {fill:#0E6096;fill-rule:nonzero}
   ]]>
  </style></defs><g id="Layer_x0020_1"><g id="_866319552"><path class="fil0" d="M25.03 48.01c0.24,-0.64 0.97,-0.97 1.61,-0.73 0.64,0.25 0.97,0.97 0.73,1.61l-1.53 4.04c-0.24,0.65 -0.96,0.97 -1.6,0.73 -0.65,-0.24 -0.97,-0.96 -0.73,-1.6l1.52 -4.05zm13.08 0c0.25,-0.64 0.97,-0.97 1.61,-0.73 0.64,0.25 0.97,0.97 0.73,1.61l-1.52 4.04c-0.25,0.65 -0.97,0.97 -1.61,0.73 -0.64,-0.24 -0.97,-0.96 -0.73,-1.6l1.52 -4.05z"/><path class="fil1" d="M10.37 43.75c-0.2,-0.05 -0.4,-0.1 -0.59,-0.16 0.19,0.06 0.39,0.11 0.59,0.16zm-0.97 -0.29c-0.38,-0.14 -0.74,-0.3 -1.09,-0.49 0.35,0.19 0.71,0.35 1.09,0.49zm-1.09 -0.49c-1.39,-0.76 -2.54,-1.91 -3.3,-3.3 0.76,1.39 1.91,2.54 3.3,3.3zm-3.3 -3.31c-0.19,-0.34 -0.35,-0.71 -0.49,-1.08 0.14,0.37 0.3,0.74 0.49,1.08zm-0.62 -1.47c-0.06,-0.19 -0.11,-0.38 -0.16,-0.58 0.05,0.2 0.1,0.39 0.16,0.58zm7.68 -10.64c0.1,-1.49 0.42,-2.93 0.91,-4.27 -0.49,1.34 -0.8,2.78 -0.9,4.27l-0.01 0zm19.25 -13.82c1.41,-2.09 3.79,-3.47 6.51,-3.47 3.96,0 7.24,2.94 7.75,6.76 0.48,-0.06 0.96,-0.09 1.45,-0.09 6.05,0 10.95,4.9 10.95,10.95 0,1.77 -0.42,3.43 -1.16,4.91 -0.82,-0.43 -1.76,-0.68 -2.76,-0.68 -0.66,-5.15 -5.06,-9.13 -10.4,-9.13 -0.64,0 -1.27,0.06 -1.88,0.17 -1.75,-4.61 -5.64,-8.15 -10.46,-9.42z"/><path class="fil2" d="M12.22 43.96c-4.53,0 -8.2,-3.68 -8.2,-8.21 0,-4.48 3.59,-8.12 8.06,-8.2 0.53,-8 7.19,-14.32 15.32,-14.32 6.57,0 12.18,4.12 14.37,9.92 0.62,-0.11 1.25,-0.17 1.89,-0.17 5.33,0 9.74,3.98 10.4,9.13 3.27,0 5.92,2.65 5.92,5.92 0,3.23 -2.57,5.85 -5.77,5.92 -14,0.2 -27.99,0.01 -41.99,0.01z"/></g></g></svg>